<svg width="16" height="16" viewBox="0 0 16 16" fill="none" xmlns="http://www.w3.org/2000/svg">
<g clip-path="url(#clip0_6_38)">
<path d="M15.648 12.1482L14.24 11.9704L13.568 10.7852L12.96 12L11.52 12.1778L12.576 13.1259L12.352 14.4296L13.6 13.8074L14.88 14.4L14.624 13.0963L15.648 12.1482ZM13.568 6.01482L10.848 5.68889L9.6 3.40741L8.416 5.71852L5.696 6.10371L7.68 7.85185L7.264 10.3704L9.664 9.15556L12.128 10.3111L11.616 7.82222L13.568 6.01482Z" fill="white" stroke="#42145F" stroke-width="1.0331" stroke-miterlimit="10"/>
<path d="M4.064 8C4.064 4.35556 6.816 1.33334 10.464 0.533335C9.856 0.414817 9.248 0.325928 8.608 0.325928C4.064 0.355557 0.351997 3.76296 0.351997 8C0.351997 12.237 4.064 15.6444 8.608 15.6444C9.248 15.6444 9.856 15.5852 10.464 15.437C6.784 14.6667 4.064 11.6444 4.064 8V8Z" fill="white" stroke="#42145F" stroke-width="1.0331" stroke-miterlimit="10"/>
</g>
<defs>
<clipPath id="clip0_6_38">
<rect width="16" height="16" fill="white"/>
</clipPath>
</defs>
</svg>
