<svg width="16" height="16" viewBox="0 0 16 16" fill="none" xmlns="http://www.w3.org/2000/svg">
<g clip-path="url(#clip0_6_20)">
<path d="M7.808 13.44C7.776 13.44 7.776 13.408 7.808 13.44L7.008 12.192V12.16H7.04L7.808 13.44C7.808 13.408 7.808 13.408 7.808 13.44Z" fill="#75338A"/>
<path d="M7.36 14.272C7.328 14.24 7.328 14.24 7.36 14.272L7.744 13.376H7.776V13.408L7.36 14.272C7.36 14.24 7.36 14.272 7.36 14.272V14.272ZM8.736 14.208L8.384 13.408V13.376H8.416L8.736 14.208C8.736 14.208 8.768 14.176 8.736 14.208Z" fill="#40255E"/>
<path d="M7.328 14.208C7.36 14.144 8.736 14.112 8.832 14.144C8.928 14.176 9.024 14.464 9.056 14.624C9.056 14.784 9.088 15.616 9.088 15.616L7.584 15.68C7.584 15.68 7.264 14.272 7.328 14.208Z" fill="#75338A"/>
<path d="M7.552 14.656C7.52 14.656 7.52 14.656 7.552 14.656L7.776 13.44H7.808V13.472L7.552 14.656Z" fill="#40255E"/>
<path d="M8.512 13.376C8.48 13.376 8.48 13.376 8.512 13.376L9.184 12.032H9.216V12.064L8.512 13.376ZM9.088 15.104H8.896C8.896 15.104 8.8 14.144 8.832 14.144C8.896 14.112 9.024 14.304 9.088 14.592V15.104Z" fill="#75338A"/>
<path d="M9.056 14.592C9.056 14.592 9.024 14.592 9.056 14.592L8.48 13.408V13.376H8.512L9.056 14.592C9.056 14.56 9.056 14.592 9.056 14.592V14.592ZM7.52 14.624C7.52 14.624 7.36 14.24 7.328 14.176C7.296 14.112 7.36 15.424 7.392 15.488C7.392 15.552 7.584 15.712 7.584 15.712C7.584 15.776 7.552 14.72 7.52 14.624V14.624Z" fill="#40255E"/>
<path d="M9.12 15.712C9.088 15.744 7.616 15.808 7.584 15.776C7.552 15.744 7.488 14.72 7.552 14.656C7.584 14.592 9.056 14.56 9.088 14.592C9.12 14.592 9.12 15.648 9.12 15.712ZM8.608 13.376C8.608 13.408 8.576 13.472 8.512 13.472L7.776 13.504C7.712 13.504 7.68 13.472 7.68 13.44C7.68 13.408 7.712 13.344 7.776 13.344L8.512 13.312C8.576 13.28 8.608 13.312 8.608 13.376Z" fill="#40255E"/>
<path d="M12.288 1.75999C12.288 1.75999 14.304 3.19999 13.376 6.27199C12.704 8.48 10.752 10.144 9.024 12.384H8.896C8.896 12.384 11.68 8.448 12.352 6.784C13.024 5.12 13.088 3.51999 12.288 1.75999V1.75999Z" fill="white" stroke="#40255E" stroke-width="0.7542" stroke-miterlimit="10"/>
<path d="M10.912 1.02399C11.328 1.02399 12.736 1.50399 13.12 3.35999C13.408 4.63999 13.248 6.17599 11.616 8.57599C11.232 9.15199 9.088 12.032 8.96 12.384H8.608C8.608 12.384 11.392 7.80799 11.84 5.43999C12.48 2.27199 10.912 1.02399 10.912 1.02399V1.02399Z" fill="white" stroke="#40255E" stroke-width="0.7542" stroke-miterlimit="10"/>
<path d="M9.632 0.511998C10.56 0.415998 11.808 0.959998 12.32 2.752C12.8 4.48 11.808 7.008 10.816 8.768C10.016 10.208 8.768 12.352 8.768 12.352L8.384 12.384C8.384 12.384 9.984 8.064 10.496 5.024C11.04 2.048 9.632 0.511998 9.632 0.511998V0.511998Z" fill="white" stroke="#40255E" stroke-width="0.7542" stroke-miterlimit="10"/>
<path d="M8.544 0.384001C9.344 0.0640012 10.72 0.448001 11.072 2.656C11.424 4.864 10.56 7.232 9.984 8.64C9.408 10.08 8.48 12.384 8.48 12.384H8.16C8.16 12.384 9.024 4.704 8.992 2.88C8.96 1.024 8.544 0.384001 8.544 0.384001V0.384001ZM3.04 2.144C3.04 2.144 1.152 3.744 2.336 6.72C3.2 8.864 5.28 10.336 7.168 12.448H7.296C7.296 12.448 4.192 8.736 3.392 7.168C2.592 5.568 2.368 3.968 3.04 2.144V2.144Z" fill="white" stroke="#40255E" stroke-width="0.7542" stroke-miterlimit="10"/>
<path d="M4.32 1.28C3.904 1.312 2.56 1.92 2.304 3.776C2.144 5.088 2.432 6.592 4.256 8.832C4.704 9.376 7.072 12.064 7.232 12.416H7.584C7.584 12.416 4.416 8.064 3.776 5.76C2.88 2.656 4.32 1.28 4.32 1.28V1.28Z" fill="white" stroke="#40255E" stroke-width="0.7542" stroke-miterlimit="10"/>
<path d="M5.568 0.671999C4.64 0.639999 3.424 1.312 3.072 3.136C2.72 4.896 3.936 7.328 5.088 8.992C6.016 10.368 7.424 12.416 7.424 12.416H7.808C7.808 12.416 5.856 8.224 5.088 5.28C4.288 2.304 5.568 0.671999 5.568 0.671999V0.671999Z" fill="white" stroke="#40255E" stroke-width="0.7542" stroke-miterlimit="10"/>
<path d="M6.624 0.447995C5.824 0.223995 4.448 0.703995 4.288 2.912C4.096 5.152 5.184 7.424 5.888 8.8C6.592 10.176 7.68 12.384 7.68 12.384H8.032C8.032 12.384 6.528 4.8 6.4 2.976C6.272 1.15199 6.624 0.447995 6.624 0.447995V0.447995Z" fill="white" stroke="#40255E" stroke-width="0.7542" stroke-miterlimit="10"/>
<path d="M7.648 0.383998C7.648 0.383998 8.32 -0.0640021 8.96 0.287998C9.568 0.639998 10.048 2.432 9.952 4.224C9.792 7.36 8.384 11.84 8.416 12.384H8.064C8.064 12.384 6.464 1.184 7.648 0.383998V0.383998Z" fill="white" stroke="#40255E" stroke-width="0.7542" stroke-miterlimit="10"/>
<path d="M7.584 0.415997C7.584 0.415997 6.976 0.0319975 6.4 0.415997C5.824 0.799997 5.856 2.752 6.08 4.544C6.496 7.68 7.936 11.872 7.936 12.416H8.192C8.192 12.416 8.544 1.12 7.584 0.415997V0.415997Z" fill="white" stroke="#40255E" stroke-width="0.7542" stroke-miterlimit="10"/>
</g>
<defs>
<clipPath id="clip0_6_20">
<rect width="16" height="16" fill="white"/>
</clipPath>
</defs>
</svg>
