<svg width="16" height="16" viewBox="0 0 16 16" fill="none" xmlns="http://www.w3.org/2000/svg">
<g clip-path="url(#clip0_9_117)">
<path d="M10.048 7.424V15.328H14.016V7.424H10.048ZM11.52 12.352H10.784V11.616H11.52V12.352ZM11.52 8.928H10.784V8.192H11.52V8.928ZM13.216 12.352H12.48V11.616H13.216V12.352Z" fill="white" stroke="#42145F" stroke-width="1.2" stroke-miterlimit="10" stroke-linecap="round"/>
<path d="M2.016 0.511999V15.328H9.44V0.511999H2.016ZM4.32 11.008H3.584V10.272H4.32V11.008ZM4.32 9.28H3.584V8.544H4.32V9.28ZM4.32 5.856H3.584V5.12H4.32V5.856ZM4.32 4.128H3.584V3.392H4.32V4.128ZM6.048 11.008H5.312V10.272H6.048V11.008ZM6.048 9.28H5.312V8.544H6.048V9.28ZM6.048 7.584H5.312V6.848H6.048V7.584ZM6.048 2.432H5.312V1.728H6.048V2.432ZM7.776 12.736H7.04V12H7.776V12.736ZM7.776 11.008H7.04V10.272H7.776V11.008ZM7.776 7.584H7.04V6.848H7.776V7.584ZM7.776 5.856H7.04V5.12H7.776V5.856ZM7.776 4.128H7.04V3.392H7.776V4.128ZM7.776 2.432H7.04V1.728H7.776V2.432Z" fill="white" stroke="#42145F" stroke-width="1.2" stroke-miterlimit="10" stroke-linecap="round"/>
<path d="M10.784 9.952H11.52V10.688H10.784V9.952Z" fill="#42145F" stroke="#42145F" stroke-width="0.5398" stroke-miterlimit="10" stroke-linecap="round"/>
<path d="M3.616 12H4.352V12.736H3.616V12Z" fill="#42145F" stroke="#42145F" stroke-width="0.5398" stroke-miterlimit="10" stroke-linecap="round"/>
<path d="M3.616 1.728H4.352V2.464H3.616V1.728Z" fill="#42145F" stroke="#42145F" stroke-width="0.5398" stroke-miterlimit="10" stroke-linecap="round"/>
<path d="M5.344 12H6.08V12.736H5.344V12Z" fill="#42145F" stroke="#42145F" stroke-width="0.5398" stroke-miterlimit="10" stroke-linecap="round"/>
<path d="M5.344 5.152H6.08V5.888H5.344V5.152Z" fill="#42145F" stroke="#42145F" stroke-width="0.5398" stroke-miterlimit="10" stroke-linecap="round"/>
<path d="M7.072 8.544H7.808V9.28H7.072V8.544Z" fill="#42145F" stroke="#42145F" stroke-width="0.5398" stroke-miterlimit="10" stroke-linecap="round"/>
<path d="M1.12 15.392H14.88Z" fill="white"/>
<path d="M1.12 15.392H14.88" stroke="#42145F" stroke-width="1.5394" stroke-miterlimit="10" stroke-linecap="round"/>
<path d="M4.928 13.12H6.496V15.392H4.928V13.12Z" fill="#42145F"/>
<path d="M11.2 13.12H12.768V15.392H11.2V13.12Z" fill="#42145F"/>
<path d="M5.344 3.424H6.08V4.16H5.344V3.424Z" fill="#42145F" stroke="#42145F" stroke-width="0.5398" stroke-miterlimit="10" stroke-linecap="round"/>
<path d="M3.616 6.848H4.352V7.584H3.616V6.848Z" fill="#42145F" stroke="#42145F" stroke-width="0.5398" stroke-miterlimit="10" stroke-linecap="round"/>
<path d="M12.48 8.224H13.216V8.96H12.48V8.224Z" fill="#42145F" stroke="#42145F" stroke-width="0.5398" stroke-miterlimit="10" stroke-linecap="round"/>
<path d="M12.48 9.952H13.216V10.688H12.48V9.952Z" fill="#42145F" stroke="#42145F" stroke-width="0.5398" stroke-miterlimit="10" stroke-linecap="round"/>
</g>
<defs>
<clipPath id="clip0_9_117">
<rect width="16" height="16" fill="white"/>
</clipPath>
</defs>
</svg>
