<svg width="16" height="16" viewBox="0 0 16 16" fill="none" xmlns="http://www.w3.org/2000/svg">
<g clip-path="url(#clip0_9_109)">
<path d="M0.32 1.73334H15.712V3.14667H0.32V1.73334ZM6.528 14.4C6.528 15.0933 7.2 15.6533 8.032 15.6533H8.064C8.864 15.6533 9.536 15.0933 9.536 14.4267H6.528V14.4ZM9.504 1.52C9.504 1.49334 9.504 1.49334 9.504 1.52C9.504 0.82667 8.832 0.26667 8 0.26667H7.968C7.136 0.26667 6.496 0.82667 6.496 1.49334H9.504V1.52ZM1.536 3.33334L0.32 4.77334L15.68 4.74667L14.688 3.33334H1.536ZM1.536 4.90667L0.32 6.34667L15.68 6.32L14.688 4.90667H1.536ZM1.536 6.50667L0.32 7.94667L15.68 7.92L14.688 6.50667H1.536ZM1.536 8.05334L0.32 9.49334L15.68 9.46667L14.688 8.05334H1.536ZM1.536 9.62667L0.32 11.0667H15.68L14.688 9.62667H1.536ZM1.536 11.2L0.32 12.6667L15.68 12.64L14.688 11.2H1.536ZM1.536 12.7467L0.32 14.1867H15.68L14.688 12.7467H1.536Z" fill="white" stroke="#42145F" stroke-miterlimit="10" stroke-linejoin="round"/>
</g>
<defs>
<clipPath id="clip0_9_109">
<rect width="16" height="16" fill="white"/>
</clipPath>
</defs>
</svg>
