<svg width="16" height="16" viewBox="0 0 16 16" fill="none" xmlns="http://www.w3.org/2000/svg">
<g clip-path="url(#clip0_7_59)">
<path d="M4.768 2.88C3.392 2.944 2.304 4.064 2.304 5.44C2.304 6.816 3.392 7.936 4.768 8C6.144 7.936 7.232 6.816 7.232 5.44C7.232 4.064 6.144 2.944 4.768 2.88V2.88Z" fill="#42145F"/>
<path d="M3.2 11.68C6.72 12.256 10.048 9.856 10.624 6.304C11.008 4 10.112 1.792 8.48 0.384003C8.736 0.384003 9.024 0.416003 9.28 0.480003C13.408 1.152 16.224 5.024 15.552 9.184C14.88 13.312 11.008 16.128 6.848 15.456C4.192 15.04 2.08 13.248 1.088 10.944C1.76 11.296 2.464 11.552 3.2 11.68V11.68Z" fill="#42145F"/>
<path d="M4.864 1.024V2.464M4.864 8.384V9.824M9.088 5.408H7.616M2.784 3.328L1.76 2.304M2.688 7.488L1.664 8.512M0.448002 5.408H1.888M6.88 3.328L7.904 2.304M6.976 7.488L8 8.512" stroke="#42145F" stroke-width="1.5" stroke-miterlimit="10" stroke-linecap="round"/>
<path d="M4.768 3.36C5.888 3.424 6.752 4.32 6.752 5.44C6.752 6.56 5.888 7.456 4.768 7.52C3.648 7.456 2.784 6.56 2.784 5.44C2.784 4.32 3.68 3.424 4.768 3.36" fill="white"/>
</g>
<defs>
<clipPath id="clip0_7_59">
<rect width="16" height="16" fill="white"/>
</clipPath>
</defs>
</svg>
