<svg width="16" height="13" viewBox="0 0 16 13" fill="none" xmlns="http://www.w3.org/2000/svg">
<g clip-path="url(#clip0_1_6)">
<path d="M11.4 10.712C11.24 11.752 11.72 12.74 12.52 12.948C13.32 13.156 14.08 12.532 14.24 11.492C14.4 10.452 13.92 9.464 13.12 9.256C12.36 9.048 11.56 9.724 11.4 10.712V10.712ZM12.28 10.972C12.32 10.608 12.64 10.296 12.96 10.4C13.24 10.452 13.48 10.868 13.4 11.284C13.36 11.648 13.04 11.96 12.72 11.856C12.4 11.804 12.2 11.388 12.28 10.972ZM2.28 9.1H0.6V9.204L0.96 10.712C1 10.764 1.04 10.92 1.2 10.92H1.56C1.56 10.816 1.6 10.712 1.6 10.608C1.68 9.984 1.96 9.464 2.28 9.1V9.1ZM2.08 10.712C1.92 11.752 2.4 12.74 3.2 12.948C4 13.156 4.76 12.532 4.92 11.492C5.08 10.452 4.6 9.464 3.8 9.256C3.04 9.048 2.28 9.724 2.08 10.712V10.712ZM2.96 10.972C3 10.608 3.32 10.296 3.64 10.4C3.92 10.452 4.16 10.868 4.08 11.284C4.04 11.648 3.72 11.96 3.4 11.856C3.08 11.804 2.88 11.388 2.96 10.972V10.972Z" fill="white"/>
<path d="M14.48 9.672C14.68 10.036 14.76 10.504 14.8 10.92H15.8C15.92 10.92 16 10.816 16 10.66V9.204C16 9.048 15.92 8.944 15.8 8.944H15.68V6.344C15.68 6.188 15.64 5.98 15.6 5.876L14.68 2.964L14.6 2.86C14.6 2.86 14.48 2.652 14.24 2.652H12.04V8.788C12.2 8.684 12.4 8.632 12.56 8.58C12.6 8.528 12.68 8.528 12.72 8.528H12.84C12.96 8.528 13.12 8.528 13.24 8.58C13.76 8.736 14.2 9.1 14.48 9.672ZM13.76 5.824C13.68 5.824 13.64 5.772 13.6 5.72L13.4 5.044C13.36 4.992 13.28 4.94 13.24 4.94H12.68C12.6 4.94 12.56 4.836 12.56 4.784V3.432C12.56 3.328 12.64 3.276 12.68 3.276H14.16C14.24 3.276 14.28 3.328 14.32 3.38L15.04 5.72C15.04 5.772 15 5.824 14.96 5.824H13.76ZM4.8 9.1C4.96 9.256 5.08 9.464 5.2 9.672C5.4 10.036 5.48 10.504 5.52 10.92H10.84C10.84 10.816 10.88 10.712 10.88 10.608C11 9.984 11.24 9.464 11.6 9.1H4.8ZM11.6 8.528H0V0H11.6V8.528Z" fill="white"/>
</g>
<defs>
<clipPath id="clip0_1_6">
<rect width="16" height="13" fill="white"/>
</clipPath>
</defs>
</svg>
