<svg width="16" height="16" viewBox="0 0 16 16" fill="none" xmlns="http://www.w3.org/2000/svg">
<path d="M11.4 13.184C11.24 14.464 11.72 15.68 12.52 15.936C13.32 16.192 14.08 15.424 14.24 14.144C14.4 12.864 13.92 11.648 13.12 11.392C12.36 11.136 11.56 11.968 11.4 13.184V13.184ZM12.28 13.504C12.32 13.056 12.64 12.672 12.96 12.8C13.24 12.864 13.48 13.376 13.4 13.888C13.36 14.336 13.04 14.72 12.72 14.592C12.4 14.528 12.2 14.016 12.28 13.504ZM2.28 11.2H0.599998V11.328L0.959999 13.184C0.999999 13.248 1.04 13.44 1.2 13.44H1.56C1.56 13.312 1.6 13.184 1.6 13.056C1.68 12.288 1.96 11.648 2.28 11.2V11.2ZM2.08 13.184C1.92 14.464 2.4 15.68 3.2 15.936C4 16.192 4.76 15.424 4.92 14.144C5.08 12.864 4.6 11.648 3.8 11.392C3.04 11.136 2.28 11.968 2.08 13.184V13.184ZM2.96 13.504C3 13.056 3.32 12.672 3.64 12.8C3.92 12.864 4.16 13.376 4.08 13.888C4.04 14.336 3.72 14.72 3.4 14.592C3.08 14.528 2.88 14.016 2.96 13.504V13.504Z" fill="white"/>
<path d="M14.48 11.904C14.68 12.352 14.76 12.928 14.8 13.44H15.8C15.92 13.44 16 13.312 16 13.12V11.328C16 11.136 15.92 11.008 15.8 11.008H15.68V7.808C15.68 7.616 15.64 7.36 15.6 7.232L14.68 3.648L14.6 3.52C14.6 3.52 14.48 3.264 14.24 3.264H12.04V10.816C12.2 10.688 12.4 10.624 12.56 10.56C12.6 10.496 12.68 10.496 12.72 10.496H12.84C12.96 10.496 13.12 10.496 13.24 10.56C13.76 10.752 14.2 11.2 14.48 11.904ZM13.76 7.168C13.68 7.168 13.64 7.104 13.6 7.04L13.4 6.208C13.36 6.144 13.28 6.08 13.24 6.08H12.68C12.6 6.08 12.56 5.952 12.56 5.888V4.224C12.56 4.096 12.64 4.032 12.68 4.032H14.16C14.24 4.032 14.28 4.096 14.32 4.16L15.04 7.04C15.04 7.104 15 7.168 14.96 7.168H13.76ZM4.8 11.2C4.96 11.392 5.08 11.648 5.2 11.904C5.4 12.352 5.48 12.928 5.52 13.44H10.84C10.84 13.312 10.88 13.184 10.88 13.056C11 12.288 11.24 11.648 11.6 11.2H4.8ZM11.6 10.496H0V0H11.6V10.496Z" fill="white"/>
</svg>
