<svg width="16" height="16" viewBox="0 0 16 16" fill="none" xmlns="http://www.w3.org/2000/svg">
<g clip-path="url(#clip0_8_96)">
<path d="M5.92 6.656C6.112 6.336 6.368 6.08 6.688 5.888L4.96 4.096V1.28H3.84V3.008L2.944 2.08L2.176 2.848L3.072 3.776H1.472V4.864H4.16L5.92 6.656ZM9.76 9.056C9.568 9.376 9.28 9.632 8.96 9.792L10.944 11.84V14.624H12.032V12.96L12.832 13.792L13.6 13.056L12.704 12.128H14.4V11.04H11.68L9.76 9.056ZM9.856 6.816L11.808 4.928H14.656V3.84H12.928L13.856 2.944L13.12 2.176L12.192 3.072V1.472H11.104V4.128L9.184 5.984C9.44 6.208 9.696 6.496 9.856 6.816V6.816ZM5.952 9.12L4.064 10.944H1.28V12.032H2.944L2.112 12.832L2.848 13.6L3.776 12.704V14.368H4.864V11.648L6.752 9.824C6.432 9.664 6.144 9.408 5.952 9.12V9.12ZM5.664 8.448C5.6 8.256 5.568 8.064 5.568 7.84C5.568 7.68 5.6 7.52 5.632 7.36L3.104 7.328L1.152 5.344L0.383999 6.112L1.568 7.296H0.415999V8.384L1.696 8.416L0.511999 9.568L1.28 10.336L3.2 8.416L5.664 8.448ZM15.648 7.488L14.336 7.456L15.456 6.336L14.72 5.6L12.864 7.456L10.08 7.424C10.112 7.552 10.112 7.712 10.112 7.84C10.112 8.064 10.08 8.288 10.016 8.512L12.832 8.544L14.848 10.56L15.616 9.792L14.4 8.544L15.68 8.576L15.648 7.488V7.488ZM7.456 5.6C7.584 5.568 7.712 5.568 7.84 5.568C8.096 5.568 8.32 5.6 8.544 5.696L8.576 3.2L10.592 1.184L9.824 0.416001L8.576 1.664L8.608 0.384001L7.52 0.352001L7.488 1.664L6.4 0.512001L5.632 1.28L7.488 3.136L7.456 5.6ZM8.48 10.016C8.288 10.08 8.064 10.112 7.84 10.112C7.68 10.112 7.552 10.112 7.392 10.08L7.36 12.928L5.376 14.912L6.144 15.68L7.328 14.496V15.68H8.416L8.448 14.4L9.632 15.584L10.4 14.816L8.48 12.896V10.016Z" fill="white" stroke="#42145F" stroke-miterlimit="10"/>
<path d="M7.84 9.248C8.61762 9.248 9.248 8.61762 9.248 7.84C9.248 7.06238 8.61762 6.432 7.84 6.432C7.06238 6.432 6.432 7.06238 6.432 7.84C6.432 8.61762 7.06238 9.248 7.84 9.248Z" fill="white" stroke="#42145F" stroke-miterlimit="10"/>
</g>
<defs>
<clipPath id="clip0_8_96">
<rect width="16" height="16" fill="white"/>
</clipPath>
</defs>
</svg>
