<svg xmlns="http://www.w3.org/2000/svg" viewBox="0 0 51 40"><circle cx="25.47" cy="20.13" r="13.19" style="fill:#fff"/><path d="M50.74,19.3C49.35,16.1,42.83,4.16,26.17,2.64H24.78C8.12,4.16,1.74,16.1.21,19.3a1.47,1.47,0,0,0,0,1.52A29.16,29.16,0,0,0,23.39,37.34a10.45,10.45,0,0,0,4.17,0A29.44,29.44,0,0,0,50.74,20.82,1.48,1.48,0,0,0,50.74,19.3Zm-12.5,2.36a13.09,13.09,0,0,1-11.1,11.1A12.8,12.8,0,0,1,12.7,18.32,13.11,13.11,0,0,1,23.81,7.22,12.9,12.9,0,0,1,38.24,21.66Z" style="fill:#3b214f"/><path d="M30.33,18.6A3.38,3.38,0,0,1,27,15.27a3.18,3.18,0,0,1,1.39-2.64,7,7,0,0,0-2.92-.69,7.91,7.91,0,0,0-7.91,7.91,8,8,0,0,0,7.91,7.91,7.91,7.91,0,0,0,7.92-7.91,9,9,0,0,0-.56-2.78A2.54,2.54,0,0,1,30.33,18.6Z" style="fill:#ff3fa1"/></svg>