<svg enable-background="new 0 0 40 40" viewBox="0 0 40 40" xmlns="http://www.w3.org/2000/svg"><title>help icon</title><path d="m19.5 27.2c-1 0-1.9.9-1.9 1.9s.9 1.9 1.9 1.9 1.9-.9 1.9-1.9-.9-1.9-1.9-1.9z" fill="#3b214f"></path><path d="m19.9 9.8c-3.3 0-5.9 2.3-6.3 5.5l-.1 1.1h3l.1-.9c.2-1.8 1.4-2.9 3.2-2.9s3.1 1.1 3.1 2.7c0 1-.3 1.7-2.1 3-2.1 1.6-2.9 2.9-2.9 4.9v2.3h3v-2.2c0-1 .2-1.5 1.9-2.7 2.3-1.6 3.2-3.1 3.2-5.2 0-3.2-2.6-5.6-6.1-5.6z" fill="#3b214f"></path><circle cx="20" cy="20" fill="none" r="19" stroke="#3b214f" stroke-miterlimit="10" stroke-width="2"></circle></svg>
