<svg width="16" height="16" viewBox="0 0 16 16" fill="none" xmlns="http://www.w3.org/2000/svg">
<g clip-path="url(#clip0_2_2)">
<path d="M7.8 10.88C7.4 10.88 7.04 11.24 7.04 11.64C7.04 12.04 7.4 12.4 7.8 12.4C8.2 12.4 8.56 12.04 8.56 11.64C8.56 11.24 8.2 10.88 7.8 10.88Z" fill="#3B214F"/>
<path d="M7.96 3.92C6.64 3.92 5.6 4.84 5.44 6.12L5.4 6.56H6.6L6.64 6.2C6.72 5.48 7.2 5.04 7.92 5.04C8.64 5.04 9.16 5.48 9.16 6.12C9.16 6.52 9.04 6.8 8.32 7.32C7.48 7.96 7.16 8.48 7.16 9.28V10.2H8.36V9.32C8.36 8.92 8.44 8.72 9.12 8.24C10.04 7.6 10.4 7 10.4 6.16C10.4 4.88 9.36 3.92 7.96 3.92V3.92Z" fill="#3B214F"/>
<path d="M8 15.6C12.1974 15.6 15.6 12.1974 15.6 7.99999C15.6 3.80263 12.1974 0.399994 8 0.399994C3.80264 0.399994 0.400002 3.80263 0.400002 7.99999C0.400002 12.1974 3.80264 15.6 8 15.6Z" stroke="#3B214F" stroke-width="2" stroke-miterlimit="10"/>
</g>
<defs>
<clipPath id="clip0_2_2">
<rect width="16" height="16" fill="white"/>
</clipPath>
</defs>
</svg>
