<svg enable-background="new 0 0 40 40" viewBox="0 0 40 40" xmlns="http://www.w3.org/2000/svg"><title>phone icon</title><path d="m1 8.9c0-2 .5-3.8 2.1-5.1.8-.7 1.4-1.4 2.2-2.1 1-1 1.7-1 2.7 0 1.4 1.4 2.8 2.8 4.2 4.2.6.6 1.3 1.2 1.9 1.9.9.9.9 1.7 0 2.6-1.2 1.2-2.3 2.3-3.5 3.5-1.1 1.1-1.2 2.3-.3 3.6 3.4 4.8 7.5 8.9 12.3 12.3 1.3.9 2.5.7 3.7-.4l3.5-3.5c.7-.7 1.6-.8 2.3-.1 2.2 2.1 4.3 4.3 6.5 6.5.7.8.7 1.5-.1 2.3-.7.7-1.5 1.4-2.1 2.2-1.7 2-4 2.4-6.5 2.1-3.7-.4-6.9-1.9-9.9-3.9-7.5-4.7-13.4-11-17.2-19.1-1.1-2.2-1.8-4.5-1.8-7z" fill="none" stroke="#3b214f" stroke-miterlimit="10" stroke-width="2"></path></svg>
