<svg enable-background="new 0 0 863 162" viewBox="0 0 863 162" xmlns="http://www.w3.org/2000/svg"><g fill="#bc2385"><path d="m170.2 82.9c-7.5 0-14.8 0-22.2 0 0-17.6 0-35.1 0-52.5-4.6 0-9 0-13.4 0v109.9h13.6c0-16.7 0-33 0-49.5h22.1v49.7h13.2c0-36.8 0-73.4 0-110.1-4.4 0-8.8 0-13.4 0 .1 17.4.1 34.8.1 52.5z"/><path d="m698.7 127.3c0-.2 0-.4 0-.8 0-21.5 0-43 0-64.4 0-.8 0-1.7 0-2.5-4.4 0-8.4 0-12.8 0v2.7 63.3c0 4.6-4 8.4-8.6 8.2-2.9-.2-5-1.7-5.6-4.6-.4-1.7-.4-3.3-.4-5 0-20.5 0-41 0-61.7 0-1 0-1.9 0-2.9-4.4 0-8.4 0-12.7 0v2.7 61.4c0 1.3 0 2.7.2 3.8.8 7.5 5.6 12.1 13 12.7 6.3.4 11.5-1.5 15.7-6.9 3.3 5.4 7.1 7.1 12.5 5.2 4.6-1.5 4.8-1.5 4-6.9-4.5.7-5.3 0-5.3-4.3z"/><path d="m566.6 127.5c0-.6 0-1.2 0-1.9 0-21.1 0-42.2 0-63.3 0-1 0-1.7 0-2.9-4.4 0-8.4 0-12.7 0v2.7 62.9c0 4.6-2.9 7.9-7.5 8.4-3.6.4-6.3-1.3-7.1-5-.2-1.5-.4-3.3-.4-4.8 0-20.5 0-41 0-61.4 0-1 0-1.7 0-2.7-4.4 0-8.4 0-12.7 0v2.5 61.2c0 1.3 0 2.7.2 4.2.6 6.5 4.2 11.1 10.2 12.3 6.7 1.3 12.8 0 17.6-5.4.4-.4.4-1 .8-1.7 3.1 5.8 7.1 7.5 12.3 5.8 5-1.5 5-1.5 4.2-7.1-3.8 1.2-4.7.3-4.9-3.8z"/><path d="m290.1 131.6c-4.2.8-5.2 0-5.2-4.4 0-.8 0-1.5 0-2.3 0-20.7 0-41.6 0-62.3 0-1 0-1.7 0-2.9-4.4 0-8.4 0-12.7 0v3.5 62.3c0 4.8-4 8.6-8.8 8.2-2.5-.2-4.4-1.3-5-3.6-.6-1.9-.8-3.8-.8-5.9 0-20.7 0-41.2 0-61.9 0-1 0-1.7 0-2.7-4.4 0-8.4 0-12.7 0v2.4 61.4c0 1.3 0 2.7.2 4.2.8 5.4 3.1 9.8 8.4 11.5 5.8 1.7 11.3 1.3 16.3-2.1 1.5-1 2.7-2.3 4.2-3.6.4.8.8 1.3 1.2 1.9 2.1 3.3 6.5 4.4 11.1 3.1 4.2-1.3 4.4-1.7 4.2-6.7-.2 0-.4 0-.4-.1z"/><path d="m517.3 127c0-.4 0-1 0-1.3 0-15 0-29.7 0-44.7 0-3.5-.4-6.9-1-10.2-1-5-3.6-9.2-8.6-11.1-7.5-2.7-15.1-2.5-22.2 1.3-4.6 2.5-7.1 6.7-6.7 12.1.2 3.3 2.1 5.4 5.2 6.5 2.9 1 5.6.4 7.9-1.7 3.8-3.8 2.5-9.4-3.3-12.5 6.5-4.8 14.6-1.5 15.7 5.9.2.8.2 1.7.2 2.5v13.4c0 1.3-.6 1.7-1.7 1.9-3.1 1-6.1 1.7-9.2 3.1-6.5 2.7-12.1 6.7-15 13.2-3.6 7.9-4 16.3-1 24.4 2.7 7.1 8.4 10.7 16.1 10.4 5-.2 9-2.5 12.3-6.1 3.3 4.6 6.5 5.9 11.3 4.8s5.6-2.1 4.8-7.1c-4.2.3-4.8-.2-4.8-4.8zm-12.9-26.3c0 8.8 0 17.8-.2 26.7 0 3.1-2.3 5.6-5.8 6.5-3.1.8-5.6-.2-7.3-2.9-.8-1.2-1.3-2.5-1.5-3.8-1.5-6.9-1.5-14 .4-20.9 1.9-7.1 7.3-10.4 14.2-12.5.2 2.5.2 4.6.2 6.9z"/><path d="m652.1 38.4c2.9 3.3 7.7 3.5 10.9.8 3.8-3.5 3.5-10.2-1.2-14-5.2-4.2-11.3-4.2-17.3-2.3-6.9 2.3-10.5 7.9-11.7 14.8-1 6.1-1 12.3-1.3 18.6v3.6c-2.7 0-5 0-7.3 0v6.9h7.3v71.7h12.8c0-24 0-47.7 0-71.9h9.8c0-2.5 0-4.6 0-6.9-3.5 0-6.7 0-10.5 0-.2-6.9-.8-13.4-.6-20.1.2-3.1 1.3-6.3 2.7-9 2.1-2.3 4.4-3.3 8.4-3.1-.8.2-1.2.4-1.3.6-3.2 2.6-3.6 7.2-.7 10.3z"/><path d="m320.9 100.7c-4.4-5.4-8.8-10.7-13-16.3-2.9-3.6-4.6-7.7-4.6-12.5.2-7.3 8.2-11.5 14.6-7.7-.8.6-1.5 1.2-2.3 1.9-2.3 2.5-2.5 6.3-.6 9.2s5.8 4.2 8.8 3.3c3.5-1.2 5.8-4.4 5.6-7.9-.2-5.2-3.1-8.6-7.5-10.7-6.7-2.9-13.6-2.9-20.3-.2-5.6 2.3-8.8 6.7-9.8 12.7-.8 4.4-.2 8.6 1.5 12.8 2.5 5.9 6.5 10.9 10.5 15.7 3.8 4.6 7.7 9.4 11.1 14.2 2.3 3.3 3.3 7.1 3.1 11.1-.6 7.9-8.8 11.9-15.7 7.7.6-.2 1-.6 1.5-.8 3.1-1.7 4.4-4.8 3.6-8.2-.8-3.1-3.5-5.4-6.7-5.6-3.6-.2-6.3 1.5-7.5 4.8-1.7 4.8.6 10.4 5.6 13.2s10.5 2.9 15.9 2.1c12.8-1.7 19.4-12.3 15.1-24.5-2-5.1-5.2-9.9-8.9-14.3z"/><path d="m599.7 132.5c-5.2 1.7-8.6-.2-9.6-5.6-.2-1.3-.2-2.7-.2-4 0-17.8 0-35.7 0-53.5 0-.8 0-1.7 0-2.7h13c0-2.5 0-4.6 0-7.1-4.4 0-8.6 0-13 0 0-8.8 0-17.4 0-26.1-4.4.8-8.6 1.7-12.8 2.5v23.8c-2.3 0-4.2 0-6.3 0v6.9h6.3v2.9 52.2c0 2.1.2 4.2.4 6.1 1 6.7 4.4 10.9 10.4 11.9 3.5.6 7.1.4 10.4-.4 2.5-.4 4.6-2.1 7.1-3.3-1-2.1-1.7-3.6-2.5-5-1.2.5-2.2 1-3.2 1.4z"/><path d="m728.4 131.7s0-.2-.2-.2c-.4 0-.8.2-1.2.2-3.8.8-5.6-.6-5.8-4.6 0-.8 0-1.5 0-2.3 0-31.6 0-63.5 0-95.1 0-1 0-1.7 0-3.1-4.4.8-8.6 1.7-13 2.5v2.5 93.6c0 1 0 1.9.2 3.1.8 8.1 6.1 12.3 14.2 10.9 5.2-1.1 6.2-2.3 5.8-7.5z"/><path d="m619.9 125.8v-.2c0-21.1 0-42.2 0-63.3 0-1 0-1.7 0-2.7-4 0-7.7 0-11.3 0-.4 0-.8 0-1.3.2v2.5 63.7c0 .8 0 1.7.2 2.5.8 10 9.2 11.9 15.7 10 4-1.2 4.8-2.7 3.6-6.9-5.4.9-6.9-.4-6.9-5.8z"/><path d="m622.4 39.3c.2-5-3.5-8.8-8.4-9-4.8-.2-9 3.6-9.2 8.4-.2 4.6 3.8 8.6 8.4 8.8 4.8.3 9-3.6 9.2-8.2z"/><path d="m413.7 81.5c-.2-.2-.4-.4-.8-.6 4.2-2.1 7.7-5 10-8.8 5.2-8.2 5.4-17.3 3.3-26.5-2.3-10.5-8.6-16.5-19.4-17.3-8.4-.6-17.1-.2-25.7-.2v109.9c8.6 0 17.3.4 25.9 0 10.4-.6 17.4-6.1 20.5-16.1 2.1-6.7 2.5-13.6 1.5-20.5-1.3-9.3-6-16.2-15.3-19.9zm-18.9-47c.8 0 1.7.2 2.5.2 2.5.2 4.8.2 7.1.6 1.3.2 2.5.8 3.6 1.5.4.2.6.6 1 .8 1.2 1.2 1.9 2.9 2.5 4.6 1.3 4.4 1.9 8.8 1.9 13.4 0 4.4-.6 9-1.9 13.4-1.5 4.8-4.8 7.7-10.2 8.1-2.1.2-4.2 0-6.5 0 0-14.2 0-28.2 0-42.6zm20.5 77.5c-.2 2.5-.6 5-1.2 7.5-.2 1.3-.6 2.5-1 3.8s-1 2.5-1.7 3.6c-.8 1-1.5 1.9-2.5 2.5-.6.4-1 .6-1.5 1-1.7.8-3.5 1.2-5.8 1.3-1.2 0-2.3 0-3.5 0s-2.3 0-3.5 0c0-15.7 0-31.4 0-47.4 1.5.2 3.3.2 4.8.2s3.1.2 4.6.6c.6.2 1.2.2 1.7.4 3.6 1.2 6.1 4 7.3 7.7.8 2.5 1.3 5 1.7 7.5s.6 5 .6 7.5c.2 1.3 0 2.6 0 3.8z"/><path d="m373.3 74.4c-.6-6.5-2.5-12.7-9.2-15.3-6.7-2.7-13.4-1.7-19 3.3-2.9 2.7-5.4 6.1-7.1 9.6-3.8 7.5-4.8 15.7-5 24-.2 9.6.4 19.2 3.8 28.2 4.4 11.5 12.5 17.1 23.8 15.7 5.4-.6 9.8-3.3 12.8-7.9-1.3-1.2-2.7-2.3-3.8-3.5-5 6.5-15.5 6.7-19.2-3.5-1.9-5.6-2.9-11.3-3.1-17.3.8-.2 1.5-.4 2.3-.6 12.2-3 25.4-14.7 23.7-32.7zm-26.3 28c.2-10.9-.8-21.5 1.9-31.6.6-1.9 1.3-4 2.7-5.6 2.1-2.7 5.4-2.3 6.9.8.6 1 1.2 2.1 1.3 3.3 1.5 7.9 1.5 15.5-1.3 23-2.1 4.9-5.7 8.6-11.5 10.1z"/><path d="m474.5 72.7c-1.5-10.9-9.6-16.7-20.3-14.2-7.7 1.7-12.1 7.3-15.1 14-5 11.3-5.4 23.4-4.4 35.5.6 6.9 1.9 13.6 5.2 19.9 5.4 10.5 15.9 15 26.3 11.1 3.6-1.3 6.5-3.5 8.4-6.9-1.3-1.2-2.5-2.3-3.6-3.5-.2.2-.6.4-.8.8-5.9 6.1-14.2 5-17.8-2.7-2.9-5.9-3.5-12.1-3.8-18.6 1.2-.4 2.1-.6 3.3-1 12.3-3.5 25.3-16 22.6-34.4zm-26 29.7c0-4.2-.2-8.1 0-12.1.4-6.3 1-12.7 1.7-19 .2-2.1 1.3-4.2 2.5-5.9 2.1-3.3 5.8-2.9 7.5.6.8 1.7 1.3 3.8 1.7 5.8.8 6.5.8 13-1.5 19.4-2.2 5.5-5.6 9.5-11.9 11.2z"/><path d="m231.6 68.3c-7.7-13.4-25.1-14.2-33.7-1.3-1.3 2.1-2.5 4.6-3.5 6.9-3.1 8.1-3.6 16.5-3.8 26.1.2 2.1.2 5.4.6 8.6.8 8.2 2.5 16.3 7.5 23.2 8.1 11.3 23.8 11.3 31.6-.2 1.9-2.9 3.5-6.1 4.6-9.4 3.6-11.1 3.6-22.8 2.5-34.3-.8-7-2.4-13.5-5.8-19.6zm-17.5 67.1c-5.4 0-9.8-16.3-9.8-36.2 0-20.1 4.4-36.2 9.8-36.2s9.8 16.3 9.8 36.2c-.2 19.9-4.4 36.2-9.8 36.2z"/></g></svg>