<svg enable-background="new 0 0 863 162" viewBox="0 0 863 162" xmlns="http://www.w3.org/2000/svg"><path d="m798.9 93c0-31.5-11.6-51.9-33.2-51.9-20.2 0-33.2 20.3-33.2 51.9s13.2 51.9 33.4 51.9c17.1 0 29.2-13.2 31.5-34.4l.2-2.2h-17.9l-.3 1.7c-1.7 12.2-5.6 19.2-13.7 19.2-8.4 0-15.7-12.5-15.2-31.1h48.1zm-18.6-10.3c-2.3 0-26.8 0-29.1 0 .8-15.4 6.9-25.9 14.5-25.9 8.4 0 14.2 9.7 14.6 25.9zm-67 58.6h17.1v-70.9c0-24.2-13-29.2-23.9-29.2-8.2 0-15.7 4.8-20.2 12.9-3.4-8.2-9.9-12.9-18.4-12.9-7.9 0-14.5 3.8-19.3 10.9 0-3.2 0-8.7 0-8.7h-14.4v97.9h17.1v-61.8c0-7.8 1.6-22.6 13.2-22.6 4.8 0 9.1 2.8 9.1 18.3v66.1h17.6v-61.8c0-13.9 4.9-22.6 13.8-22.6 5.5 0 8.5 3.6 8.5 18.3zm-81.3-48.9c0-31.1-13.3-51.3-33.8-51.3s-33.8 20.2-33.8 51.3c0 31 13.3 51.1 33.8 51.1s33.8-20 33.8-51.1zm-17.3 0c0 21.3-6.4 35.6-16.4 35.6s-16.4-14.3-16.4-35.6c0-21.4 6.4-35.8 16.4-35.8 9.9 0 16.4 14.4 16.4 35.8zm-70.3 49h17.4v-63.9c0-24.4-5.5-36.4-23.6-36.4-7.3 0-14.4 3.7-17.4 8.8v-32.7h-17.4v2 53.5c6.7.3 12 7.2 12 15.7 0 9.4-5.3 15.4-12 15.7v5.3h7.8 1.6c.2 0 0 11.8 0 11.8-.6 9.6-3.7 16.6-8.5 20.2h16.5v-56.5c0-18 4.6-28.7 14.6-28.7 6.1 0 9 6.8 9 17.7zm-41-66.8c-5.2-.6-9.8 2.8-12.6 9.2-1.9 4.4-3.5 11.1-5.3 18.8 0 0-.3 1.1-.6 2.4-3.4-7.4-6.8-15.5-9.7-23.1 9.2-5.6 14.2-14.1 14.2-24.1v-1.4c-.3-6.2-2.3-11.2-5.8-14.3-3.2-2.9-7.4-4.2-12.5-3.8-9.7.6-16.3 7.3-18.1 18.2-.3 1.8-.5 3.8-.5 5.9 0 5.5 1.1 12.2 3.4 19.8-2.6 1.4-4.8 3-6.8 4.7-.5.4-.9.8-1.3 1.1-.2.2-.4.3-.5.5-.5.6-1.1 1.1-1.5 1.7-.2.2-.4.4-.5.6-4.3 5.5-7 13.2-7 21.7s2.7 16.1 7 21.7v.3c3.9 5.2 9.4 8.3 15.5 8.5 7.4.3 13.4-2.4 18.3-7.9 3.8 5.3 8.4 7.9 13.8 7.9 4.9 0 8.8-1.5 11.7-4.6 4.6-4.8 6.7-13 6.3-25.2l-.1-1.9h-7.7v2c0 13.3-1.6 15.3-3.1 15.6-.8.2-2.4.5-5.6-5.1-1.4-2.5-3-5.3-4.6-8.6 2.3-6.5 4.5-13.8 5.6-18.3.2-.9.5-1.4.7-1.9.2 2.3 1.1 4.1 2.5 5.4 1.4 1.2 3.3 1.9 5.4 1.7 3.1-.3 9.4-3.8 9.5-13-.1-8.2-3.9-13.9-10.1-14.5zm-31.5 47.1.5 1 .8 1.6s.7 1.4 1.1 2.4c-1.8 1.5-3.7 2.3-5.6 2.3-5.3-.2-9.8-6.3-11.7-15.4-.8-4-1.1-7.4-1.1-10.3 0-4.9 1-8.8 3.2-11.7 4.5 12.5 9.7 23.4 12.8 30.1zm.3-47.5c-1.1-3.3-2.2-6.4-3.1-9.2-1.2-4.1-1.8-7.7-1.8-10.6 0-2.4.4-4.3 1.2-5.7s1.9-1.8 2.5-1.9c1.2-.3 2.4 0 3.3.8 1.1 1 3.2 3.6 3.2 10.9v.3c.1 7.4-1.6 12-5.3 15.4zm-35.7 38.4c0-8.7 2.6-16.6 6.9-22.5v-12.6c0-24.4-8-36.4-24.6-36.4-8.1 0-14.6 3.8-19.4 11.4 0-3.5 0-9.2 0-9.2h-14.4v98l17.4.1v-56.5c0-18 4.6-28.7 14.6-28.7 5.8 0 9 6.8 9 17.7v67.5l17.4-.1v-6.2c-4.3-5.9-6.9-13.8-6.9-22.5zm-70.3 28.7h15.9v-72.6c0-17.5-10.3-27.6-28.4-27.6-10.6 0-21 5.2-27.2 13.5l-1 1.2 9 11.3 1.5-1.9c4.4-5.4 11.1-9 17.1-9 10.8 0 11.7 8.5 11.7 15.6v6.7c-7.5-.1-12.5.6-18.6 2.3-7.2 2-23.9 9.2-23.9 32.7 0 20.5 13.3 29.6 26.2 29.6 7.4 0 13.6-2.6 17.7-7.1zm-1.2-49.3c0 2-.1 14.5-.1 14.5 0 15-3.2 22.3-13.2 22.3-6.3 0-11.1-6.7-11.1-15.9 0-11 4.4-15.9 9.9-18.1 4.3-2 9.2-2.7 14.5-2.8zm-61.6 49.3h17.1v-70.9c0-24.2-13-29.2-23.9-29.2-8.2 0-15.7 4.8-20.2 12.9-3.4-8.2-9.9-12.9-18.4-12.9-7.9 0-14.5 3.8-19.3 11.1 0-3.2 0-8.9 0-8.9h-14.4v97.9h17.1v-61.8c0-7.8 1.6-22.6 13.2-22.6 4.5 0 9 2.2 9 18.3v66.1h17.8v-61.8c0-13.9 4.7-22.6 13.6-22.6 5.5 0 8.5 3.1 8.5 18.3zm-81.3-48.9c0-31.1-13.3-51.3-33.8-51.3s-33.9 20.2-33.9 51.3c0 31 13.3 51.1 33.8 51.1s33.9-20 33.9-51.1zm-17.5 0c0 21.3-6.3 35.6-16.3 35.6s-16.3-14.3-16.3-35.6c0-21.4 6.3-35.8 16.3-35.8s16.3 14.4 16.3 35.8zm-64.3 48.9 19.8-98h-17l-10.3 62.6-11.8-62.6h-16.9l-11.3 62.5-10.4-62.5h-18.3l20 98h16.8s9.7-51.7 11.7-61c1.8 9.4 11.7 61 11.7 61z" fill="#71cbd2"/></svg>