<svg enable-background="new 0 0 863 162" viewBox="0 0 863 162" xmlns="http://www.w3.org/2000/svg"><path d="m548 86.7v-20.3c0-17.6-11.2-29.3-27.2-29.3-16.3 0-27.2 11.7-27.2 30.5v28.2c0 18.8 10.9 30.5 27.2 30.5 17.2 0 26.4-10.4 27.2-28.2h-17.1c0 6.6-2.9 12-10.1 12-5.7 0-10.1-3.8-10.1-12.3v-11.3zm-37.3-16.2v-4.8c0-7.6 3.2-12.3 10.1-12.3 7 0 10.1 4.7 10.1 12.3v4.8zm37.3-15.6v-16.2h6.8v-20.2h17.1v20.4h11.1v16.1h-11.1v47.8c0 4.3 3.2 6.3 7.8 6.3 1.1 0 2.2 0 3.3-.2v16.8c-3.2.6-6.5.8-9.8.8-11.2 0-18.5-4.7-18.5-17.1v-54.6zm73.4 13.8v-3.9c0-6.6-4.1-10.1-10.1-10.1s-10.1 3.5-10.1 10.1v34.2c0 6.6 4.1 10.1 10.1 10.1s10.1-3.5 10.1-10.1v-5.4h17.1v.3c0 22.8-10.1 32.6-27.2 32.6s-27.2-9.8-27.2-32.6v-24c0-22.8 10.1-32.6 27.2-32.6 16.8 0 26.7 9.5 27 31.3z" fill="#1d1d1b"/><path d="m224.6 6.9v118h49v-19h-30.2v-99h-18.8zm52.2 31.8h17.1v86h-17.1zm48.1 55.5h.3l11.2-55.4h17.1l-19.9 86h-16.9l-20.1-86.2h17.1zm31.5-55.5h17.1v86h-17.1zm21.8 86.2v-86.2h16.6v9.8c6.3-6.3 12.2-11.4 19.1-11.4 10.4 0 16 6.2 16 22.1v65.5h-17.2v-63.2c0-5.7-1.6-9.5-6.3-9.5-3.5 0-7.4 3.9-11.2 7.8v65c.2.1-16.9.1-17 .1zm92.3 5.7c5.2.5 6.3 1.7 6.3 4.6 0 4.4-4.7 6.8-13 6.8-10.1 0-15.6-1.9-15.6-6.3 0-3.2 1.7-4.9 3.5-7zm23.4-93.5c-6.3 0-10.6 3.6-15 10-4.6-6.1-11.7-9.8-19.3-10-19.1 0-25.3 13.9-25.3 32.4 0 14.4 2.8 23.6 11.2 29.9-4.3 3-10.3 7.6-10.3 14.4 0 5.5 3 9.3 7.1 12.2-4.1 3-10.3 7-10.3 13.5 0 9.6 10.1 15.6 28.3 15.6 19.9 0 32.9-7 32.9-21.7 0-31.2-43-14.5-43-25.3 0-2.1 2.1-3.5 3-5.1 2.3.8 4.7 1.2 7.1 1.1 16.9 0 24.7-12.3 24.7-33.8 0-5.2-1.1-9.5-2.2-15.2 2.4-.8 4.1-1.9 5.8-1.9 1.8.3 3.6.7 5.4 1.3zm-25.3 32.9c0 15-2.4 18.2-9.8 18.2-5.2 0-8.2-5.4-8.2-16.1 0-13.4 2.4-18.7 9-18.7 6-.1 9 5.4 9 16.6m-112.1-51.5h17.1v16.3h-17.1zm-79.7 0h17.1v16.3h-17.1z" fill="#debdc4"/></svg>