<svg viewBox="0 0 306.8 68" xmlns="http://www.w3.org/2000/svg"><title>blinds 2go logo</title><path d="m8.2 20.6c2.8-2.7 5.7-3.9 9.8-3.9 9.3 0 17.3 7.8 17.3 17.8 0 10.3-8.6 17.9-18.5 17.9-8.9.1-16.8-7.4-16.8-18.3v-28.1l8.4-1.1v15.7zm0 14.1c0 5.5 4.3 10.2 10 10.2 4.8 0 9.1-4.7 9.1-10.2s-4.3-10.2-9.1-10.2c-5.6-.1-10 4.6-10 10.2m32.2 17.3v-46l8.4-1.1v46zm14.7-34.2 8.4-1.1v34.1l-8.4 1.2zm14.9 0 8-.8v4.6h.1c2.9-3.8 5.7-4.9 10.4-4.9 6.9 0 11.6 4.4 11.6 11.6v22.5l-8.5 1.2v-21.5c0-3.5-1.6-6.5-5.5-6.5-5.3 0-7.8 4-7.8 8.2v18.5l-8.4 1.2zm62.6 30c-3.5 3.5-5.9 4.7-10.5 4.7-9.6 0-16.6-8.5-16.6-17.8s7-17.9 16.6-17.9c3.4 0 6.9 1 10 3.5v-14.3l8.4-1.1v46l-8 1.2v-4.3zm-9.4-3c5.7 0 9.8-4.7 9.8-10.2s-4.1-10.2-9.8-10.2-9.8 4.7-9.8 10.2 4.1 10.2 9.8 10.2m27.2-2.9c2.2 2.3 4.4 3.5 7.6 3.5 2.7 0 4.7-1.7 4.7-3.5 0-6-16.6-2.1-16.6-15 0-6.9 6.1-10.4 12.4-10.4 4.8 0 9.3 1.9 12.5 5.5l-5.5 4.9c-1.6-1.8-3.7-3.4-6.3-3.4-2.5 0-4 1-4 3.5 0 5.5 16.6 1.7 16.6 14.1 0 7.7-6.9 11.1-13.8 11.1-4.7 0-9.5-1.8-12.7-5.5z" fill="#fff"/><path d="m176.5 51.4 12.9-15.7c3.4-4.1 9.7-10.8 9.7-15.9 0-3.7-2.5-6.9-7.5-6.9-4.6 0-7.2 3.4-7.2 7.3 0 3.3 2.6 6.5 5.9 6.8l-5.4 7.1c-3.2-1.2-9.3-4.8-9.3-14.7 0-7 5.1-14.5 16.8-14.5 8.6 0 15.4 6.3 15.4 15.2 0 9.5-9.2 16.6-14.8 23h15.6l-2.2 8.4z" fill="#afb6bd"/><path d="m220.1 41.1c-5.8-2.5-8-5.5-8-11 0-7.9 6.8-13.2 15.3-13.2 3.8 0 6.9.4 8.2.4 3.4 0 8-1.1 11.7-2.2l-1.6 7.2h-5.2c2.1 2.4 3.4 4.8 3.4 8.2 0 4.7-2.9 8.2-7.2 9.9 4.7 2.2 7.8 5.7 7.8 11 0 9.1-8.8 13.2-15.9 13.2-7.7 0-12.6-1.9-17.1-6.7l5.2-5.4c3.5 3.7 5.7 5.1 11 5.1 3.4 0 8.1-2 8.1-6.5 0-5.2-4-7.6-8.9-7.6-2.9 0-5.7 1.1-8.2 2.5zm8-4.1c3.8 0 7.5-3 7.5-7 0-3.9-3.6-6.9-7.5-6.9-3.8 0-7.5 3-7.5 6.9 0 4 3.7 7 7.5 7m39.3-20.3c10 0 18.7 7.8 18.7 17.9s-8.7 17.9-18.7 17.9-18.7-7.8-18.7-17.9 8.7-17.9 18.7-17.9m0 28.1c5.7 0 10.7-4.4 10.7-10.2s-5-10.2-10.7-10.2c-5.8 0-10.7 4.4-10.7 10.2s5.1 10.2 10.7 10.2m18.9-28.3h-2.8v-1.4h7.3v1.4h-2.8v7.8h-1.7zm6.3-1.4h2.7l2.5 7.1h.1l2.5-7.1h2.7v9.2h-1.7v-7.7l-2.7 7.7h-1.4l-2.7-7.7h-.1v7.7h-1.7zm-229.5-4.1-8.3 1.2v-8l8.3-1.2z" fill="#fff"/></svg>