<svg enable-background="new 0 0 863 162" viewBox="0 0 863 162" xmlns="http://www.w3.org/2000/svg"><path d="m146.3 135.1h44v-2.2c-13.6-.4-15.2-4.7-15.2-12.3v-77.3c0-7.4 1.6-11.8 15.2-12.3v-2h-44v2.1c13.6.4 15.2 5 15.2 12.3v77.1c0 7.5-1.6 11.8-15.2 12.3zm63.9 1.3c8.4 0 14.9-4.1 19.9-9.8v9l20.8-.7v-1.9c-8.3-.1-9.2-2.2-9.2-6.4v-101l-22.6.7v2.1c10.6.3 10.6 2.5 10.6 8.7v22.8c-3.8-2.8-8-4.6-15.2-4.6-18.6 0-31.3 17.6-31.3 41.4.2 22 9.2 39.7 27 39.7zm5.7-6.2c-13.3 0-19.2-14.3-19.2-33.7 0-23.2 6.1-38.3 18.2-38.3 7.4 0 11.2 3.4 14.9 9v55.3c-3.2 4.5-7.4 7.7-13.9 7.7zm61.5 6.2c14.5 0 20.8-9.6 26.2-20.2l-1.6-1.3c-6.1 9.3-9.9 14.9-19.2 14.9-15.5 0-22.5-15.5-22.5-34.7v-.1c0-1.5 0-5.9.1-7.5h42.6c1.2-18.8-6.8-32.2-25.7-32.2-16.4 0-30.4 18-30.4 41.4-.1 22.4 11.9 39.7 30.5 39.7zm-1-78.2c9.8 0 14.5 8 13.2 26.5h-29.1c1.1-19.5 8.9-26.5 15.9-26.5zm48.1 77.9c8.4 0 15.2-5.8 21-13.4h.6c.4 9.5 3 13.4 10.3 13.2 3-.1 5-.9 6.8-2.2v-3.3c-5.8 2.7-5.6-3.3-5.6-11.7v-39.5c0-16.4-8.4-23.6-23.5-23.6-13.7 0-24.8 7.7-24.8 17.6 0 5 2.5 9 7.2 9 4.9 0 7.7-4 7.7-9 0-3.1-1.6-6.2-3.7-8.9 2.5-3.5 7.5-5.6 12.9-5.6 9 0 12.4 6.8 12.4 20.2v6.1c-2.2 2.1-21.7 4.6-30.1 12.4-6.1 4.7-8.4 13.9-8.4 20.7-.4 9.3 5.1 18 17.2 18zm7-6.6c-8.1 0-11.4-6.2-11.4-14.3 0-11.2 4.3-21.1 25.4-26.7v30.1c-3.1 5.1-8.3 10.9-14 10.9zm33.5 5.6h28.8v-2.1c-8.4-.1-9.2-1-9.2-6.8v-100.6l-22.6.7v2.1c10.6.3 10.6 2.5 10.6 8.7v89.1c0 5.8-1.2 6.6-7.7 6.8v2.1zm42.3 0h42.3v-2.2c-13.6-.4-13.7-4.3-13.7-12.1v-39.2h40.9v39c0 7.8 0 11.7-13.6 12.1v2.2h42.1v-2.2c-12.9-.4-14.8-4.6-14.8-12.1v-77.4c0-7.4 2.1-11.7 14.8-12.1v-2.1h-42.1v2.1c13.4.4 13.6 4.4 13.6 12.1v34.8h-40.9v-34.8c0-7.7 0-11.7 13.7-12.1v-2.1h-42.3v2.1c12.9.4 14.8 5.6 14.8 12.9v77.4c0 7.5-2.1 10.9-14.8 11.4zm120.4 1.3c16.7 0 31.8-17.1 31.8-41.1 0-23.8-14.5-40.2-31.8-40.2-16.8 0-31.9 17.1-31.9 40.9 0 24 14.3 40.4 31.9 40.4zm.6-3.1c-11.5 0-18.8-9.5-18.8-37.7s6.1-37.4 17.4-37.4c11.5 0 18.8 9.3 18.8 37.4.1 28.3-6.2 37.7-17.4 37.7zm68.4 1.8h29v-2.1c-8.4-.1-9.2-1-9.2-6.8v-48.6c4.4-9.6 10.8-14.5 16.6-14.5 8.7 0 10.6 7.2 10.6 20.8v42.3c0 5.8.4 6.6-6.9 6.8v2.1h28.1v-2.1c-8.4-.1-9.2-1-9.2-6.8v-47.4c0-15.4-6.5-23.1-16.8-23.1-9 0-16.4 6.4-22.8 17.7-1.3-11.8-7.5-17.7-16.6-17.7-9.8 0-16.3 6.6-22.8 19.8v-19.3l-20.8.7v2.1c8.3.1 9.2 3.5 9.2 8.7v58.5c0 5.8-.7 6.6-9.2 6.8v2.1h27.9v-2.1c-7.2-.1-6.8-1-6.8-6.8v-46.2c4-10.2 9.5-17 16.6-17 8.7 0 10.6 7.2 10.6 20.8v42.3c0 5.8-.4 6.6-7.8 6.8v2.2zm93.9 1.3c14.5 0 20.7-9.6 26.2-20.2l-1.6-1.3c-6.1 9.3-11.2 14.9-20.5 14.9-15.5 0-20.4-15.5-20.4-34.7v-.1c0-1.5 0-5.9.1-7.5h42c1.2-18.8-6.8-32.2-25.7-32.2-16.6 0-29.9 18-29.9 41.4-.1 22.4 11.3 39.7 29.8 39.7zm-.9-78.2c9.8 0 14.5 8 13.2 26.5h-28.5c1.2-19.5 7.9-26.5 15.3-26.5z" fill="#4c7c98"/></svg>