<svg enable-background="new 0 0 863 162" viewBox="0 0 863 162" xmlns="http://www.w3.org/2000/svg"><path d="m607.3 93.9c.5 2.3 12.9 6.9 23.1 6.9 31 0 39.1-15.9 39.1-26.5 0-35-55.5-21.1-55.5-44.9 0-11.6 11.5-16.4 22.3-16.4 12.1 0 22 5.6 26.1 16.4.4 1.1 1.3 3.8 2.9 3.8 1.3 0 1.6-.9 1.5-1.9l-2.1-17.2c-.1-1.4-.9-1.8-1.6-1.8-1.3 0-1.6 1.4-2.9 1.4-1.9 0-6.5-4.6-22.9-4.6-15.7 0-30.4 7.7-30.4 23.8 0 33 55.5 19.4 55.5 43.8 0 13.3-12.7 20-25.7 20-18.9 0-27.1-13.2-28.7-19-.7-2.6-.7-4.2-2.6-4.2-1.3 0-2.1 1.4-1.5 3.9zm-63.3-70.2c0-8.4-.3-8 14-8 5.9 0 21.5-.8 25.4 3.5 2.4 3 0 9 3.6 9 .9 0 3-1 3-15 0-1.5-.3-2.7-1.5-2.7-4.6 0-18.4.5-21.4.5-6.3-.1-13.9-.7-42.2-.7-4.4 0-5.3.5-5.3 1.5 0 1.5 3.3 1.8 4.5 2 8.1 1 8.1 7.1 8.1 12.8v57.7c0 5.9-.3 9.5-4.2 11-4.8 2-6.3 1.8-6.6 3.3 0 1 .9 1.3 2.2 1.3 5.9 0 12.3-.3 18.2-.5 11.4-.2 22.7.5 34.1.5 6.6 0 7.7.2 12.4-4.3 3.6-3.3 7.5-7.7 7.5-12.3 0-.2-.1-1.5-1.2-1.5-2 0-.8 13.2-39.4 13-12.5 0-11.4-3.1-11.4-10.5v-23.2c0-1.9-.4-4.1 2.7-4.1h22.2c12.5 0 7.5 11.2 12.1 11.2 1.1 0 1.6-.5 1.6-1.6 0-3.4-.3-6.7-.3-10 0-4.1.3-8.3.3-12.8 0-1-.4-2.4-1.6-2.4-3.6 0 .4 10.1-15.1 10.1h-16.1c-5.9 0-5.7 0-5.7-4.3zm-45.6 1.9c-.5-15 10.4-9.7 10.4-13.7 0-.8-.5-1.5-1.3-1.5-2.2 0-3.4.5-6.6.5-.7 0-5-.5-6.5-.5-1.6-.1-2.7 3-3.5 4.3l-32.6 60.5c-2.2 4.2-3.5 6.8-4.3 6.8-1 0-1.5-1.1-3-3.8l-32.6-64.2c-.7-1.4-1-3.6-2.9-3.6-2.4 0-4.9.5-7.3.5-2.6 0-5-.5-7.6-.5-1.2 0-2.3.2-2.3 1.4 0 4.3 12.9-2.7 12.9 27 0 13.4-1.6 26.9-3.3 47.5-1 13.2-9.8 8-9.8 12.3 0 .9.4 1.5 1.3 1.5 2.4 0 4.8-.5 11.8-.5 4.1 0 10.3.5 12.1.5 1.9 0 3.4-.1 3.4-1.4 0-4.6-12.9 1-12.3-15.8l1.6-44.4c.1-1.3.5-1.9 1-1.9s1.2.3 1.6 1.4l29.2 56.5c.4.9 1.3 3.6 2.7 3.6s3.5-5.2 4.3-6.4l28.3-53.4c1.3-2.6 2.6-3.8 3.5-3.8.8 0 1.5 1.8 1.5 4.9l1.3 49.1c.1 9.3-8.4 6.6-8.4 10.4 0 .5.2 1.1 1.5 1.1 3.4 0 7.8-.5 12.1-.5 5.5 0 10.3.5 12.8.5 1.5 0 3.3 0 3.3-1.3 0-4.4-10.1.2-10.7-10.4zm-155.7 75.3c30.5 0 51.7-18.3 51.7-46.8 0-26.2-21.5-44.9-49.3-44.9-28.1 0-50.2 19.1-50.2 45.4 0 26.8 18.2 46.3 47.8 46.3zm-1.7-87.5c26.6 0 43.4 22.4 43.4 45.4 0 23.5-16 38.3-36 38.3-27.1 0-43.6-22.7-43.6-46.1.1-20 13.3-37.6 36.2-37.6zm-135.7 72.7c0 12.5-10.6 8.3-10.6 12.1 0 1.3.4 1.9 1.5 1.9.5 0 2.1-.5 11.7-.5 7.2 0 17.2.5 19 .5 1.2 0 2.2-.3 2.2-1 0-3.9-12.9-1.1-12.9-9.8v-31.6c0-1.4 0-2.2 1.6-2.2h50.4c1.6 0 1.1 1.1 1.1 3.2v30.4c0 8-9.5 6.3-9.5 9.2 0 2 2.1 1.6 3.3 1.6 2.6 0 6.5-.5 15.1-.5 4.9 0 9.2.5 12.8.5 1 0 1.5-1.1 1.5-1.5 0-3.2-12.4-.9-12.4-10.1v-67c0-8.8 9.2-6.6 9.2-8.9 0-.8-.2-2-3.8-2-2.7 0-4.8.5-9.9.5-2.6-.1-9.8-.7-14.3-.7-2.1 0-2.3.7-2.3 1.4 0 3 10.3.8 10.3 9.5v26c0 .5.2 3.6-1.1 3.6h-50.1c-2.1 0-2.1-.5-2.1-2.3v-27.1c0-9.5 9.9-7.1 9.9-9.7 0-.5-.2-1.3-2.6-1.3-4.3 0-8.4.5-12.7.5-5 0-10-.5-15-.5-1.1 0-2.2.3-2.2 1.4 0 2.7 11.7.2 11.8 9.5v64.9z"/><path d="m608.4 149.2c.3 1.2 6.9 3.6 12.3 3.6 16.4 0 20.7-8.3 20.7-13.8 0-18.2-29.4-11-29.4-23.2 0-6 6-8.6 11.8-8.6 6.4 0 11.6 2.9 13.8 8.6.2.5.8 2 1.5 2s.9-.4.8-1l-1.1-9c-.1-.8-.4-.9-.9-.9-.8 0-.9.8-1.5.8-1 0-3.4-2.4-12.2-2.4-8.3 0-16.1 4.1-16.1 12.4 0 17.2 29.4 10.1 29.4 22.8 0 6.9-6.7 10.4-13.6 10.4-10 0-14.4-6.8-15.2-9.9-.3-1.4-.3-2.2-1.4-2.2-.8 0-1.1.8-.8 2.1zm-51.7-6.3c0 9.2-6.4 6.4-6.4 8.7 0 .3.1.8 1 .8.5 0 4.3-.2 6.8-.2 3.5 0 5.6.2 7.3.2.8 0 .8-.5.8-.9 0-1.8-6.4.5-6.4-5.4v-27c0-1.3.2-1.5.5-1.5.5 0 1.4 1.1 1.5 1.2l31.1 31.9c1.5 1.5 2.2 1.9 2.7 1.9s.7-.9.7-2.9v-38.2c0-4.8 4.3-3.6 4.3-5.4 0-.4-.3-.5-.8-.5-1.8 0-4.8.2-7.3.2-2.3 0-4.4-.2-6.6-.2-.4 0-.8.2-.8.7 0 2.2 8-.3 8 8.3v27.5c0 .5-.1.8-.2.8s-.4-.2-.9-.8l-34.7-35c-.4-.4-1.1-1.5-1.9-1.5-1.1 0-2.2.2-3.3.2-1.2 0-2.2-.2-3.4-.2-.3 0-1.1.2-1.1.7 0 2.4 8.8-1.4 8.8 12.3v24.3zm-38.5-30.4c0-4.4-.1-4.2 6.8-4.2 2.9 0 10.4-.4 12.3 1.9 1.2 1.5 0 4.7 1.8 4.7.4 0 1.4-.5 1.4-7.8 0-.8-.1-1.4-.8-1.4-2.2 0-8.9.2-10.3.2-3.1 0-6.8-.2-20.5-.2-2.1 0-2.5.2-2.5.8 0 .8 1.6.9 2.2 1.1 3.9.5 3.9 3.7 3.9 6.7v30c0 3.1-.1 4.9-2 5.7-2.3 1.1-3.1.9-3.2 1.8 0 .5.4.7 1.1.7 2.9 0 5.9-.2 8.9-.2 5.5-.1 11 .2 16.6.2 3.2 0 3.8.1 6.1-2.2 1.8-1.8 3.6-4.1 3.6-6.4 0-.1-.1-.8-.5-.8-1 0-2.4 6.8-19.2 6.8-6 0-5.5-1.5-5.5-5.5v-12.1c0-1-.2-2.1 1.3-2.1h10.7c6 0 3.6 5.8 5.8 5.8.5 0 .8-.2.8-.9 0-1.8-.1-3.5-.1-5.2 0-2.1.1-4.4.1-6.7 0-.5-.2-1.2-.8-1.2-1.8 0 .2 5.3-7.3 5.3h-7.8c-2.9 0-2.7 0-2.7-2.2zm-59.6 33c0 6.3-5.2 4.6-5.2 6.1 0 .4.1.7.8.7.5 0 7.5-.2 8.1-.2 3.7 0 7.3.2 11.1.2 20.1 0 28-10.4 28-25.7 0-12.2-12.6-20.9-25.4-20.9-6.3 0-11 .2-15.7.2-2.2 0-4.3-.2-6.5-.2-.4 0-1 .2-1 .7 0 1.8 5.9-.3 5.9 6.4zm5.8-34.1c0-3.1.3-4.2 7.1-4.2 13.7.1 24.5 8.3 24.5 22.9 0 15.2-9.8 20.2-20.1 20.2-3.3 0-8.8-.8-11.2-3-.7-.5-.4-3.7-.4-4.8v-31.1zm-51-1.2c0-2.5 1.5-2.4 4.2-2.4 7.1 0 13.8 2.7 13.8 10.7 0 8.1-6.9 9.3-10.1 9.3-3.4 0-7.9.3-7.9-.9zm14.2 18.2c5-1.9 9.1-6.3 9.1-11.4 0-12.7-16-11.4-17.1-11.4-3.7 0-7.9.2-12.1.2-3.7 0-3.3-.2-4.6-.2-.9 0-1.4.4-1.4.8 0 2.2 6.3-.4 6.3 5.8v33.6c0 5-5.3 4.1-5.3 5.7 0 .4.3.8.8.8 2.7 0 5.5-.2 8.2-.2 6 0 7.7.2 8.3.2.5 0 1.2.1 1.2-.5 0-2.2-7.6-.2-7.6-5.8v-14c0-.7-.4-1.9 1.9-1.9 8.1 0 7-.2 9.7 3.5l8 11.5c2.7 3.7 5.6 7.1 10.9 7.1.7 0 4.7 0 4.7-.8 0-1.5-3.5.9-8.8-6.4zm-45.6 13.5c.8 1.8 2.2 4.8 2.2 6.3 0 2.5-4.4 1.9-4.4 3.4 0 .7 1.2.7 1.6.7 2 0 3.9-.2 5.8-.2 3 0 5.9.2 8.9.2.5 0 1 0 1-.5 0-1.6-4.2-.2-6.4-3.2-1.6-2.3-2.5-5-3.6-7.5l-14.9-34c-.2-.5-.8-2.4-1.5-2.4-1 0-1.2 1.1-5.5 9.3l-17.3 33.6c-1.9 3.7-5.3 2.6-5.3 4.1 0 .4.2.8.7.8 1.9 0 3.8-.2 5.8-.2s4.1.2 6 .2c1 0 2 .2 2-1 0-1.8-5.2.2-5.2-4.4 0-.9.3-1.9.5-2.3l4.6-9.2c.8-1.4 2-1.4 3.4-1.4h15.9c2 0 2.4 1 3.2 2.5zm-13.6-27.9c.4-.8.8-.8 1.2 0l7 15.9c.3.9.4 1.3-1.2 1.3h-14.4c-1 0-1.4-.2-1-1.2zm-41.6 13.3c-.7 0-1.6-.1-1.6.8 0 1.6 6.4.2 6.4 3.4v10.4c0 5.7-8.7 8.7-15.4 8.7-14.3 0-21.7-11.3-21.7-23.1 0-11.1 6.6-21.3 19.8-21.3 17.4 0 20.7 12.9 22.6 12.9.8 0 .8-.7.8-1.2l-.8-8.8c-.1-.5.2-1.5-.8-1.5-.8 0-1.1 1.2-1.9 1.2-2.1 0-5.7-4.6-18.5-4.6-15.6 0-27.5 10-27.5 24.5 0 14.9 10.1 24 26.4 24 13.2 0 15.1-4.6 22.7-6.8v-13.7c0-4.5 3.7-3 3.7-4.4 0-.9-1.4-.7-2-.7zm-76.2-18.6c0-.5.1-1.9-.9-1.9-.7 0-.9.5-1.2.5s-3-1.8-7.3-1.8c-5.6 0-11.2 3-11.2 9 0 2.7 1.4 5.4 3.2 7.5-7.3 1.5-11.1 6.9-11.1 13.9 0 10.3 8.9 16.7 19.1 16.7 6.8 0 12.1-2.2 17-6.7 3.8 2.9 7.6 6.7 12.8 6.7 2.3 0 5.7-1 5.7-2.1 0-.1-.1-.5-.5-.5s-1.2.3-2.5.3c-3.1 0-9.7-6.4-12.3-8.3 2.2-3.7 2.7-8 3.3-12.1.3-2.9 3-2.2 3-3.2 0-.7-.3-.8-1-.8-2.3 0-3.5.2-4.4.2-1 0-3.5-.2-6-.2-.5 0-1.6-.1-1.6.5 0 2.1 6.5-.5 6.5 7.1 0 2.7-.3 5.2-2 7-14.9-13.2-25.1-23.6-25.1-28 0-3.2 2.5-5.4 5.7-5.4 4.2 0 7.8 3.5 9.4 6.9.2.4.4 1.2 1 1.2.3 0 .7-.2.7-.5zm-7.1 40.1c-8.9 0-17.7-7.3-17.7-16.1 0-3.8 3.2-9 7.6-9 2.5 0 7.8 8.8 22.5 20.8-3.4 2.9-8 4.3-12.4 4.3z"/><path d="m644.3 112.3c-.8 0-1.4-.3-2.1-.9-.5-.5-.9-1.2-.9-2.1 0-.8.3-1.5.9-2.1s1.2-.9 2.1-.9c.8 0 1.5.3 2.1.9.5.5.9 1.2.9 2.1 0 .8-.3 1.5-.9 2.1-.5.7-1.3.9-2.1.9zm0-.4c.8 0 1.4-.3 2-.9.4-.4.5-1 .5-1.6 0-.5-.2-1.1-.5-1.6-.4-.5-1.1-.9-1.9-.9s-1.4.3-1.9.9c-.4.4-.5 1-.5 1.6s.2 1.3.8 1.8c.2.5.9.7 1.5.7zm-1-.9v-3.2h1c.3 0 .5.1.8.2.1.1.2.3.2.5s0 .3-.1.5c-.1.1-.2.3-.4.4l1 1.4h-.5l-.9-1.3h-.4v1.3h-.7zm.6-1.7h.1c.3 0 .4 0 .7-.1.1-.1.2-.2.2-.4s-.1-.3-.2-.3c-.1-.1-.3-.1-.5-.1h-.3z"/></svg>