<svg enable-background="new 0 0 863 162" viewBox="0 0 863 162" xmlns="http://www.w3.org/2000/svg"><path d="m572 97.2c0 24.3-18 43-40.5 43-22.6 0-40.8-18.6-40.8-43 0-24.3 18.4-42.9 40.7-42.9s40.6 18.6 40.6 42.9zm-55.7 0c0 24.8 3.8 37.2 15.2 37.2 11.2 0 15.1-12.3 15.1-37.2 0-24.8-3.8-37.2-15.1-37.2-11.1 0-15.2 12.4-15.2 37.2z" fill="#00a696"/><path d="m569.9 60.9h-3.2v-4.6h4.9c8.7 0 18.4-.4 28.9-1.2v14.7c6.5-9.6 14.8-14.5 24-14.5 10.7 0 18 5 22.3 15.4 7.8-10.3 16-15.4 25.7-15.4 17.8 0 24.6 12 24.6 36v33.5c0 7.4.5 8.7 7 8.7h4.9v5h-44.6v-5h3.6c6.5 0 6.9-1.5 6.9-8.7v-40.4c0-11.5-2.8-17-10.3-17-5.7 0-11.5 3.8-15.2 11.2v46.2c0 7.4.5 8.7 7 8.7h3.3v5h-43.2v-5h3.6c6.5 0 6.9-1.5 6.9-8.7v-40.4c0-11.5-2.8-17-10.3-17-5.7 0-11.5 3.8-15.2 11.2v46.2c0 7.4.5 8.7 7 8.7h3.2v5h-44.9v-5h4.9c6.5 0 6.9-1.5 6.9-8.7v-56.1c-.2-6.3-1.3-7.8-8.7-7.8z" fill="#00a696"/><path d="m727 99.1v1.2c0 19.8 9 30.6 24.6 30.6 12.7 0 22.7-7.8 25.2-20.7h6.9c-1.8 18.4-15.4 30.2-37 30.2-26.1 0-44.2-18-44.2-42.5 0-25.5 18.5-43.3 42.4-43.3s39.7 16.4 41.1 44.5zm32-7.1c-.4-21.5-3.6-31.3-15.2-31.3-12.1 0-16.6 10-16.9 31.3z" fill="#00a696"/><g fill="#e4007d"><path d="m157.3 133.4h7.8v5h-56.2v-5h7.7c6.9 0 8.4-2.5 8.4-9.9v-31.9l-27-51.4c-5.3-10-9.5-14.4-18.4-14.4-.7 0-1.7.1-2.5.1v-4.4h55.9v4.5c-2.1 0-3.7.1-4.6.1-5.7 0-8.3 1.5-8.3 5.3 0 1.8 1.1 4 2.5 6.9l22.6 43.2 16.4-33.8c3.6-7.1 5.5-12 5.5-15.2 0-4.9-3.8-6.5-12-6.5-.5 0-.8 0-1.3 0v-4.5h38v4.5c-10.6.1-14.5 5.3-19.7 16l-23 47.4v34.2c-.3 7.3 1.3 9.8 8.2 9.8z"/><path d="m238.7 97.2c0 24.3-18 43-40.5 43s-40.8-18.6-40.8-43c0-24.3 18.4-42.9 40.7-42.9s40.6 18.6 40.6 42.9zm-55.7 0c0 24.8 3.8 37.2 15.2 37.2 11.2 0 15.1-12.3 15.1-37.2 0-24.8-3.8-37.2-15.1-37.2-11.1 0-15.2 12.4-15.2 37.2z"/><path d="m241.8 56.4c8.4 0 16.9-.4 25-1.1v53.9c0 12.8 2.4 19.3 10.8 19.3 9.1 0 15.4-7.1 15.4-21.8v-33.5c0-1.2 0-2.4 0-3.3 0-7.4-.5-9-10-9-.8 0-1.7 0-2.6 0v-4.6c3 .1 6.2.1 9.1.1 8.8 0 17.6-.4 26-1.1v69.3c0 7.4.4 8.7 6.9 8.7h4.5v5c-2.5 0-5 0-7.5 0-8.2 0-17 .1-26.1.7v-14c-3.7 9-13.1 15.2-24.7 15.2-16.2 0-24.2-8.2-24.2-24.6v-42.4c0-1.1 0-2 0-2.8 0-7.7-.5-9.5-9.4-9.5-.8 0-1.5 0-2.4 0v-4.6c3.1.1 6.1.1 9.2.1z"/><path d="m357.8 114.4c0 16.5 0 19 7.8 19h5.9v5h-47.4v-5h4.9c6.5 0 7-1.3 7-8.7v-56c0-6.3-1.3-7.8-8.7-7.8h-3.2v-4.6c11.5 0 22.7-.4 33.5-1.3-.5 9.1-.8 18.5-1.1 28h1.1"/><path d="m354.9 82.1h1.1c4.1-16.6 25-28.1 35.8-28.1 7.1 0 13.2 5.7 13.2 12.7 0 7.5-5.1 13.2-11.4 13.2-6.9 0-9.4-10.2-14-10.2-4.9 0-23.6 3-23.6 41.3"/></g><path d="m493 26.1h7.7v-4.5h-56v4.5h7.8c6.6 0 8.3 2.5 8.3 9.6v31.3h-42.1v-31.3c0-7.1 1.8-9.6 8.4-9.6h7.7v-4.5h-56v4.5h7.8c6.7 0 8.4 2.5 8.4 9.6v15.2c7.3 1.6 12.9 7.4 13.1 15.1.3 9.4-5.5 16-13.1 17v40.8c0 7.1-1.8 9.6-8.4 9.6h-7.8v5h56v-5h-7.7c-6.6 0-8.4-2.5-8.4-9.6v-47.9h42.1v47.8c0 7.1-1.7 9.6-8.3 9.6h-7.8v5h56v-5h-7.7c-6.6 0-8.4-2.5-8.4-9.6v-88c-.2-7.1 1.7-9.6 8.4-9.6z" fill="#00a696"/></svg>