<svg enable-background="new 0 0 377 68" viewBox="0 0 377 68" xmlns="http://www.w3.org/2000/svg"><title>blinds 2go logo</title><path d="m8.4 17.6c2.8-2.7 5.6-3.9 9.7-3.9 9.3 0 17.2 7.8 17.2 17.9 0 10.3-8.7 17.9-18.5 17.9-8.9 0-16.8-7.5-16.8-18.4v-28.1l8.4-1.1zm0 14c0 5.5 4.3 10.2 9.9 10.2 4.8 0 9.1-4.7 9.1-10.2s-4.3-10.2-9.1-10.2c-5.6 0-9.9 4.7-9.9 10.2zm32.1 17.4v-46l8.5-1.1v45.9zm14.7-34.2 8.4-1.1v34l-8.4 1.3zm15 0 7.9-.8v4.6h.1c2.8-3.8 5.6-4.9 10.3-4.9 7 0 11.6 4.4 11.6 11.6v22.5l-8.3 1.2v-21.4c0-3.6-1.7-6.6-5.4-6.6-5.3 0-7.8 4-7.8 8.3v18.5l-8.4 1.2zm62.5 30c-3.5 3.5-5.8 4.7-10.5 4.7-9.6 0-16.6-8.5-16.6-17.9 0-9.3 7-17.9 16.6-17.9 3.4 0 6.9 1 10 3.6v-14.3l8.4-1.1v46l-7.9 1.3zm-9.4-3c5.6 0 9.7-4.7 9.7-10.2s-4.1-10.2-9.7-10.2-9.7 4.7-9.7 10.2c-.1 5.5 4 10.2 9.7 10.2zm27.3-2.9c2.2 2.3 4.4 3.6 7.6 3.6 2.7 0 4.7-1.7 4.7-3.4 0-6-16.6-2.1-16.6-15 0-6.9 6.1-10.3 12.3-10.3 4.8 0 9.3 1.9 12.5 5.5l-5.5 4.9c-1.7-1.8-3.8-3.4-6.4-3.4-2.5 0-4 .9-4 3.5 0 5.5 16.6 1.7 16.6 14.1 0 7.7-7 11.1-13.8 11.1-4.7 0-9.5-1.8-12.7-5.4z" fill="#3b214f"></path><path d="m176.5 48.4 12.9-15.8c3.4-4.2 9.7-10.8 9.7-15.9 0-3.8-2.5-6.9-7.5-6.9-4.6 0-7.2 3.4-7.2 7.3 0 3.3 2.6 6.6 6 6.8l-5.4 7.1c-3.2-1.2-9.3-4.8-9.3-14.6 0-7 5.1-14.5 16.8-14.5 8.6 0 15.4 6.3 15.4 15.1 0 9.5-9.2 16.6-14.8 23h15.6l-2.2 8.4z" fill="#afb6bd"></path><path d="m220.1 38c-5.8-2.5-7.9-5.4-7.9-11.1 0-7.9 6.8-13.2 15.4-13.2 3.8 0 6.9.4 8.1.4 3.3 0 8-1.1 11.7-2.3l-1.7 7.2h-5.2c2.1 2.4 3.4 4.8 3.4 8.2 0 4.7-2.9 8.1-7.2 9.9 4.7 2.3 7.8 5.7 7.8 11.1 0 9.1-8.8 13.2-15.9 13.2-7.7 0-12.6-1.9-17-6.8l5.2-5.4c3.6 3.7 5.7 5.1 11 5.1 3.4 0 8-2.1 8-6.6 0-5.2-4-7.6-8.9-7.6-2.9 0-5.7 1.1-8.1 2.5zm8-4c3.8 0 7.5-3 7.5-7s-3.6-7-7.5-7-7.5 3-7.5 7 3.6 7 7.5 7zm39.3-20.3c9.9 0 18.7 7.8 18.7 17.9s-8.7 17.9-18.7 17.9-18.7-7.8-18.7-17.9 8.8-17.9 18.7-17.9zm0 28.1c5.7 0 10.7-4.4 10.7-10.2s-5-10.2-10.7-10.2-10.7 4.4-10.7 10.2 5 10.2 10.7 10.2zm18.9-28.2h-2.8v-1.5h7.3v1.5h-2.8v7.8h-1.7zm6.3-1.5h2.7l2.5 7.1h.1l2.5-7.1h2.7v9.2h-1.7v-7.7l-2.7 7.7h-1.4l-2.7-7.7v7.7h-1.7v-9.2zm-229.3-4.1-8.4 1.2v-8.1l8.4-1.1zm-50.3 57h-1.8v-4c0-.6-.1-1-.3-1.3s-.5-.4-.8-.4c-.4 0-.7.1-1 .4s-.6.6-.7 1.1v4.2h-1.9v-4c0-.6-.1-1-.3-1.3s-.5-.4-.8-.4c-.4 0-.7.1-1 .4-.4.3-.6.7-.7 1.1v4.2h-1.9v-7.2h1.7v1.3c.3-.5.6-.8 1.1-1.1s1-.4 1.6-.4 1.1.1 1.4.4.5.7.6 1.1c.3-.5.7-.9 1.1-1.1.4-.3 1-.4 1.5-.4.4 0 .8.1 1.1.2.3.2.5.4.7.6.2.3.3.6.3.9.1.3.1.7.1 1zm3.6.2c-.3 0-.7-.1-1-.2s-.6-.3-.8-.5-.4-.4-.5-.7-.2-.6-.2-.9.1-.7.2-.9c.2-.3.4-.5.6-.7.3-.2.6-.4 1-.5s.8-.2 1.2-.2c.3 0 .6 0 .9.1s.6.1.8.2v-.4c0-.5-.1-.8-.4-1.1s-.5-.4-1.1-.4c-.4 0-.8.1-1.1.2-.4.1-.7.3-1.1.6l-.6-1.2c.9-.6 1.9-.9 3-.9 1 0 1.8.3 2.4.8s.9 1.2.9 2.2v2.2c0 .2 0 .3.1.4s.2.1.4.1v1.6c-.2 0-.3.1-.5.1h-.4c-.3 0-.6-.1-.8-.2-.2-.2-.3-.4-.3-.6v-.4c-.3.4-.7.7-1.2 1s-1 .3-1.5.3zm.5-1.4c.3 0 .6-.1.9-.2s.5-.3.7-.4c.2-.2.3-.3.3-.5v-.8c-.2-.1-.5-.1-.7-.2-.3-.1-.5-.1-.7-.1-.5 0-.9.1-1.2.3s-.5.5-.5.8.1.6.4.8c.2.2.5.3.8.3zm8.4 1.4c-.5 0-1-.1-1.4-.3s-.8-.5-1.1-.8-.5-.7-.7-1.2-.3-.9-.3-1.5c0-.5.1-1 .2-1.5.2-.4.4-.8.7-1.2.3-.3.6-.6 1-.8s.8-.3 1.3-.3 1 .1 1.4.4.8.6 1 1v-4h1.8v7.9c0 .2 0 .3.1.4s.2.1.4.1v1.6c-.3.1-.6.1-.9.1s-.6-.1-.8-.2-.3-.4-.4-.6v-.5c-.3.5-.6.8-1.1 1-.2.2-.7.4-1.2.4zm.5-1.6c.2 0 .4 0 .5-.1.2-.1.4-.1.5-.3.2-.1.3-.2.4-.4.1-.1.2-.3.3-.5v-1.7c-.2-.4-.4-.7-.8-1s-.7-.4-1.1-.4c-.3 0-.5.1-.8.2s-.4.3-.6.5-.3.4-.4.7-.1.5-.1.8.1.6.2.8c.1.3.2.5.4.7s.4.3.6.5c.4.1.6.2.9.2zm8.8 1.6c-.6 0-1.1-.1-1.6-.3s-.9-.5-1.2-.8-.6-.7-.8-1.2c-.1-.5-.2-.9-.2-1.4s.1-1 .3-1.5.4-.9.8-1.2c.3-.3.7-.6 1.2-.8s1-.3 1.6-.3 1.1.1 1.6.3.9.5 1.2.8.6.7.7 1.2c.2.4.3.9.3 1.4v.6h-5.7c0 .3.1.5.2.8.1.2.3.4.4.6.2.2.4.3.6.4s.4.1.7.1c.4 0 .7-.1 1-.3s.5-.4.7-.7l1.6.4c-.3.6-.7 1-1.3 1.4-.6.3-1.3.5-2.1.5zm1.9-4.4c0-.5-.2-1-.6-1.3s-.8-.5-1.3-.5c-.2 0-.5 0-.7.1s-.4.2-.6.4-.3.3-.4.6c-.1.2-.1.5-.1.7zm10.6 3.9c-.2.1-.6.2-.9.3-.4.1-.7.2-1.1.2-.3 0-.5 0-.7-.1l-.6-.3c-.2-.1-.3-.3-.4-.6-.1-.2-.2-.5-.2-.8v-4.1h-.9v-1.4h.9v-2.3h1.8v2.3h1.5v1.4h-1.5v3.5c0 .3.1.4.2.5s.3.2.5.2.4 0 .6-.1.3-.1.4-.2zm4.2.5c-.6 0-1.1-.1-1.6-.3s-.9-.5-1.2-.8-.6-.7-.7-1.2c-.2-.4-.3-.9-.3-1.4s.1-1 .3-1.4.4-.8.7-1.2c.3-.3.7-.6 1.2-.8s1-.3 1.6-.3 1.1.1 1.6.3.9.5 1.2.8.6.7.7 1.2c.2.4.3.9.3 1.4s-.1 1-.3 1.4-.4.8-.7 1.2c-.3.3-.7.6-1.2.8s-1 .3-1.6.3zm-1.9-3.8c0 .3 0 .6.1.9s.2.5.4.7.4.3.6.4.5.2.7.2c.3 0 .5-.1.7-.2s.4-.3.6-.4c.2-.2.3-.4.4-.7s.1-.6.1-.9 0-.6-.1-.9-.2-.5-.4-.7-.4-.3-.6-.4-.5-.2-.7-.2c-.3 0-.5.1-.7.2s-.4.3-.6.5-.3.4-.4.7c0 .2-.1.5-.1.8zm21.3 3.6h-1.8v-4c0-.6-.1-1-.3-1.3s-.5-.4-.8-.4c-.4 0-.7.1-1 .4s-.6.6-.7 1.1v4.2h-1.8v-4c0-.6-.1-1-.3-1.3s-.5-.4-.8-.4c-.4 0-.7.1-1 .4s-.6.6-.7 1.1v4.2h-1.8v-7.2h1.7v1.3c.3-.5.6-.8 1.1-1.1s1-.4 1.6-.4 1.1.1 1.4.4.5.7.6 1.1c.3-.5.7-.9 1.1-1.1.4-.3 1-.4 1.5-.4.4 0 .8.1 1.1.2.3.2.5.4.7.6.2.3.3.6.3.9.1.3.1.7.1 1v4.7zm5 .2c-.6 0-1.1-.1-1.6-.3s-.9-.5-1.2-.8-.6-.7-.8-1.2c-.2-.4-.3-.9-.3-1.4s.1-1 .3-1.5.4-.9.8-1.2c.3-.3.7-.6 1.2-.8s1-.3 1.6-.3 1.1.1 1.6.3.9.5 1.2.8.6.7.7 1.2c.2.4.3.9.3 1.4v.6h-5.7c0 .3.1.5.2.8.1.2.3.4.4.6.2.2.4.3.6.4s.4.1.7.1c.4 0 .7-.1 1-.3s.5-.4.7-.7l1.6.4c-.3.6-.7 1-1.3 1.4-.5.3-1.2.5-2 .5zm1.9-4.4c0-.5-.2-1-.6-1.3s-.8-.5-1.3-.5c-.2 0-.5 0-.7.1s-.4.2-.6.4-.3.3-.4.6c-.1.2-.2.5-.2.7zm5 4.4c-.3 0-.7-.1-1-.2s-.6-.3-.8-.5-.4-.4-.5-.7-.2-.6-.2-.9.1-.7.2-.9c.2-.3.4-.5.6-.7.3-.2.6-.4 1-.5s.8-.2 1.2-.2c.3 0 .6 0 .9.1s.6.1.8.2v-.4c0-.5-.1-.8-.4-1.1s-.6-.4-1.1-.4c-.4 0-.8.1-1.1.2-.4.1-.7.3-1.1.6l-.6-1.2c.9-.6 1.9-.9 3-.9 1 0 1.8.3 2.4.8s.9 1.2.9 2.2v2.2c0 .2 0 .3.1.4s.2.1.4.1v1.6c-.2 0-.3.1-.5.1h-.4c-.3 0-.6-.1-.8-.2-.2-.2-.3-.4-.3-.6v-.4c-.3.4-.7.7-1.2 1-.5.2-1 .3-1.5.3zm.5-1.4c.3 0 .6-.1.9-.2s.5-.3.7-.4c.2-.2.3-.3.3-.5v-.8c-.2-.1-.5-.1-.7-.2-.3-.1-.5-.1-.7-.1-.5 0-.9.1-1.2.3s-.5.5-.5.8.1.6.4.8.4.3.8.3zm8.3 1.4c-.3 0-.6 0-.9-.1-.3 0-.6-.1-.9-.2l-.9-.3c-.3-.1-.5-.3-.7-.4l.7-1.3c.9.6 1.8.9 2.7.9.4 0 .7-.1.9-.2s.3-.3.3-.6-.1-.4-.4-.6c-.3-.1-.7-.3-1.3-.4-.5-.1-.9-.2-1.2-.3s-.6-.3-.8-.4c-.2-.2-.3-.3-.4-.5s-.1-.4-.1-.7c0-.4.1-.7.2-1s.4-.5.6-.7c.3-.2.6-.4.9-.5.4-.1.7-.2 1.1-.2.5 0 1 .1 1.5.2.5.2 1 .4 1.4.7l-.8 1.1c-.4-.3-.8-.4-1.1-.6-.3-.1-.7-.1-1-.1s-.6.1-.8.2-.3.3-.3.6c0 .2.1.4.3.5s.6.2 1.1.4c.5.1 1 .3 1.3.4.4.1.7.3.9.4.2.2.4.4.5.6s.2.5.2.8-.1.7-.2.9c-.1.3-.3.5-.6.7s-.6.3-.9.5-.9.2-1.3.2zm6.3 0c-.7 0-1.3-.2-1.7-.7s-.6-1.2-.6-2.1v-4.5h1.8v4.1c0 1.1.4 1.7 1.2 1.7.4 0 .7-.1 1.1-.3.3-.2.6-.5.8-1v-4.5h1.8v5.1c0 .2 0 .3.1.4s.2.1.4.1v1.5c-.2 0-.4.1-.5.1h-.4c-.3 0-.6-.1-.8-.2-.2-.2-.3-.4-.4-.6v-.6c-.3.5-.7.9-1.2 1.1-.4.2-1 .4-1.6.4zm10.7-5.8c-.6 0-1.1.1-1.5.3s-.8.5-.9.9v4.4h-1.8v-7.2h1.7v1.5c.2-.5.6-.9 1-1.2s.8-.5 1.3-.5h.3zm4.3 5.8c-.6 0-1.1-.1-1.6-.3s-.9-.5-1.2-.8-.6-.7-.8-1.2c-.2-.4-.3-.9-.3-1.4s.1-1 .3-1.5.4-.9.8-1.2c.3-.3.7-.6 1.2-.8s1-.3 1.6-.3 1.1.1 1.6.3.9.5 1.2.8.6.7.7 1.2c.2.4.3.9.3 1.4v.6h-5.6c0 .3.1.5.2.8.1.2.3.4.4.6.2.2.4.3.6.4s.4.1.7.1c.4 0 .7-.1 1-.3s.5-.4.7-.7l1.6.4c-.3.6-.7 1-1.3 1.4-.6.3-1.3.5-2.1.5zm1.9-4.4c0-.5-.2-1-.6-1.3s-.8-.5-1.3-.5c-.2 0-.5 0-.7.1s-.4.2-.6.4-.3.3-.4.6c-.1.2-.2.5-.2.7zm2.7 4.5c.1 0 .2 0 .3-.1s.2-.2.2-.4v-1.8h1.5v2.1c0 .3-.1.5-.2.7s-.3.3-.5.4-.4.2-.6.2-.4.1-.7.1zm18.1-.3h-1.8v-4c0-.6-.1-1-.3-1.3s-.5-.4-.8-.4c-.4 0-.7.1-1 .4s-.6.6-.7 1.1v4.2h-2v-4c0-.6-.1-1-.3-1.3s-.5-.4-.8-.4c-.4 0-.7.1-1 .4s-.6.6-.7 1.1v4.2h-1.8v-7.2h1.7v1.3c.3-.5.6-.8 1.1-1.1s1-.4 1.6-.4 1.1.1 1.4.4.5.7.6 1.1c.3-.5.7-.9 1.1-1.1.4-.3 1-.4 1.5-.4.4 0 .8.1 1.1.2.3.2.5.4.7.6.2.3.3.6.3.9.1.3.1.7.1 1zm3.5.2c-.3 0-.7-.1-1-.2s-.6-.3-.8-.5-.4-.4-.5-.7-.2-.6-.2-.9.1-.7.2-.9c.2-.3.4-.5.6-.7.3-.2.6-.4 1-.5s.8-.2 1.2-.2c.3 0 .6 0 .9.1s.6.1.8.2v-.4c0-.5-.1-.8-.4-1.1s-.7-.4-1.2-.4c-.4 0-.8.1-1.1.2-.4.1-.7.3-1.1.6l-.6-1.2c.9-.6 1.9-.9 3-.9 1 0 1.8.3 2.4.8s.9 1.2.9 2.2v2.2c0 .2 0 .3.1.4s.2.1.4.1v1.6c-.2 0-.3.1-.5.1h-.4c-.3 0-.6-.1-.8-.2-.2-.2-.3-.4-.3-.6v-.4c-.3.4-.7.7-1.2 1-.4.2-.9.3-1.4.3zm.5-1.4c.3 0 .6-.1.9-.2s.5-.3.7-.4c.2-.2.3-.3.3-.5v-.8c-.2-.1-.5-.1-.7-.2-.3-.1-.5-.1-.7-.1-.5 0-.9.1-1.2.3s-.5.5-.5.8.1.6.4.8c.2.2.5.3.8.3zm8.5 1.4c-.5 0-1-.1-1.4-.3s-.8-.5-1.1-.8-.5-.7-.7-1.2-.3-.9-.3-1.5c0-.5.1-1 .2-1.5.2-.4.4-.8.7-1.2.3-.3.6-.6 1-.8s.8-.3 1.3-.3 1 .1 1.4.4.8.6 1 1v-4h1.8v7.9c0 .2 0 .3.1.4s.2.1.4.1v1.6c-.3.1-.6.1-.9.1s-.6-.1-.8-.2-.3-.4-.4-.6v-.5c-.3.5-.6.8-1.1 1-.2.2-.7.4-1.2.4zm.5-1.6c.2 0 .4 0 .5-.1.2-.1.4-.1.5-.3.2-.1.3-.2.4-.4.1-.1.2-.3.3-.5v-1.7c-.2-.4-.4-.7-.8-1s-.7-.4-1.1-.4c-.3 0-.5.1-.8.2s-.4.3-.6.5-.3.4-.4.7-.1.5-.1.8.1.6.2.8c.1.3.2.5.4.7s.4.3.6.5c.3.1.6.2.9.2zm8.8 1.6c-.6 0-1.1-.1-1.6-.3s-.9-.5-1.2-.8-.6-.7-.8-1.2c-.2-.4-.3-.9-.3-1.4s.1-1 .3-1.5.4-.9.8-1.2c.3-.3.7-.6 1.2-.8s1-.3 1.6-.3 1.1.1 1.6.3.9.5 1.2.8.6.7.7 1.2c.2.4.3.9.3 1.4v.6h-5.6c0 .3.1.5.2.8.1.2.3.4.4.6.2.2.4.3.6.4s.4.1.7.1c.4 0 .7-.1 1-.3s.5-.4.7-.7l1.6.4c-.3.6-.7 1-1.3 1.4-.6.3-1.3.5-2.1.5zm1.8-4.4c0-.5-.2-1-.6-1.3s-.8-.5-1.3-.5c-.2 0-.5 0-.7.1s-.4.2-.6.4-.3.3-.4.6c-.1.2-.2.5-.2.7zm9.2 4.4c-.3 0-.6 0-.9-.1-.3 0-.6-.1-.9-.2l-.9-.3c-.3-.1-.5-.3-.7-.4l.7-1.3c.9.6 1.8.9 2.7.9.4 0 .7-.1.9-.2s.3-.3.3-.6-.1-.4-.4-.6c-.3-.1-.7-.3-1.3-.4-.5-.1-.9-.2-1.2-.3s-.6-.3-.8-.4c-.2-.2-.3-.3-.4-.5s-.1-.4-.1-.7c0-.4.1-.7.2-1s.4-.5.6-.7c.3-.2.6-.4.9-.5.4-.1.7-.2 1.1-.2.5 0 1 .1 1.5.2.5.2 1 .4 1.4.7l-.8 1.1c-.4-.3-.8-.4-1.1-.6-.4-.1-.7-.2-1.1-.2-.3 0-.6.1-.8.2s-.3.3-.3.6c0 .2.1.4.3.5s.6.2 1.1.4c.5.1 1 .3 1.3.4.4.1.7.3.9.4.2.2.4.4.5.6s.2.5.2.8-.1.7-.2.9c-.1.3-.3.5-.6.7s-.6.3-.9.5-.8.3-1.2.3zm4.1-8.4v-1.8h1.8v1.8zm0 8.2v-7.2h1.8v7.2zm14.7 0h-1.8v-4c0-.6-.1-1-.3-1.3s-.5-.4-.8-.4c-.4 0-.7.1-1 .4s-.6.6-.7 1.1v4.2h-1.8v-4c0-.6-.1-1-.3-1.3s-.5-.4-.8-.4c-.4 0-.7.1-1 .4s-.6.6-.7 1.1v4.2h-2v-7.2h1.7v1.3c.3-.5.6-.8 1.1-1.1s1-.4 1.6-.4 1.1.1 1.4.4.5.7.6 1.1c.3-.5.7-.9 1.1-1.1.4-.3 1-.4 1.5-.4.4 0 .8.1 1.1.2.3.2.5.4.7.6.2.3.3.6.3.9.1.3.1.7.1 1zm5.9.2c-.6 0-1-.1-1.5-.4-.4-.3-.8-.6-1-1v4.2h-1.8v-10.2h1.6v1.2c.3-.4.6-.8 1-1s.9-.4 1.5-.4c.5 0 .9.1 1.3.3s.8.5 1.1.8.5.7.7 1.2.3.9.3 1.4-.1 1-.2 1.5c-.2.5-.4.9-.7 1.2s-.6.6-1 .8c-.4.3-.9.4-1.3.4zm-.6-1.6c.3 0 .5-.1.8-.2.2-.1.4-.3.6-.5s.3-.4.4-.7.1-.5.1-.8-.1-.6-.2-.8c-.1-.3-.2-.5-.4-.7s-.4-.3-.6-.5c-.2-.1-.5-.2-.8-.2-.2 0-.4 0-.5.1-.2.1-.4.1-.5.3-.2.1-.3.2-.4.4-.1.1-.2.3-.3.5v1.7c.2.4.4.8.8 1 .2.3.6.4 1 .4zm5-8.6h1.8v7.6c0 .6.3.8.8.8.1 0 .2 0 .4-.1.1 0 .3-.1.4-.1l.2 1.5c-.2.1-.5.2-.9.3s-.6.1-.9.1c-.6 0-1-.2-1.3-.5s-.5-.7-.5-1.3zm7.7 10.2c-.6 0-1.1-.1-1.6-.3s-.9-.5-1.2-.8-.6-.7-.8-1.2c-.2-.4-.3-.9-.3-1.4s.1-1 .3-1.5.4-.9.8-1.2c.3-.3.7-.6 1.2-.8s1-.3 1.6-.3 1.1.1 1.6.3.9.5 1.2.8.6.7.7 1.2c.2.4.3.9.3 1.4v.6h-5.6c0 .3.1.5.2.8.1.2.3.4.4.6.2.2.4.3.6.4s.4.1.7.1c.4 0 .7-.1 1-.3s.5-.4.7-.7l1.6.4c-.3.6-.7 1-1.3 1.4-.6.3-1.3.5-2.1.5zm1.9-4.4c0-.5-.2-1-.6-1.3s-.8-.5-1.3-.5c-.2 0-.5 0-.7.1s-.4.2-.6.4-.3.3-.4.6c-.1.2-.2.5-.2.7z" fill="#3b214f"></path></svg>
