<svg width="16" height="16" viewBox="0 0 16 16" fill="none" xmlns="http://www.w3.org/2000/svg">
<path d="M11.0613 0L0.639999 10.4213L4.93867 14.72L15.36 4.29867L11.0613 0ZM1.81333 10.4213L2.688 9.54667L3.776 10.6347L4.36267 10.048L3.28533 8.96L4.48 7.75467L6.57067 9.84533L7.15733 9.25867L5.06667 7.168L6.16533 6.06933L7.25333 7.15733L7.84 6.57067L6.752 5.48267L7.82933 4.40533L9.92 6.496L10.5067 5.90933L8.42667 3.81867L9.57867 2.66667L10.6667 3.75467L11.2533 3.168L10.1653 2.08L11.0613 1.184L14.1867 4.29867L4.93867 13.5467L1.81333 10.4213Z" fill="white"/>
</svg>
