<svg viewBox="0 0 85 85" xmlns="http://www.w3.org/2000/svg" xmlns:xlink="http://www.w3.org/1999/xlink"><title>cart icon</title><linearGradient id="a" gradientUnits="userSpaceOnUse" x1="33.325" x2="84.109" y1="31.146" y2="93.994"><stop offset="0" stop-color="#f4992f"></stop><stop offset=".819" stop-color="#cd7412"></stop></linearGradient><path d="m42.5 82.9c22.3 0 40.4-18.1 40.4-40.4s-18.1-40.4-40.4-40.4-40.4 18.1-40.4 40.4 18.1 40.4 40.4 40.4" fill="url(#a)"></path><path d="m42.5 4.1c21.2 0 38.4 17.2 38.4 38.4s-17.2 38.4-38.4 38.4-38.4-17.2-38.4-38.4 17.2-38.4 38.4-38.4m0-4.1c-23.5 0-42.5 19-42.5 42.5s19 42.5 42.5 42.5 42.5-19 42.5-42.5-19-42.5-42.5-42.5z" fill="#fff"></path><g fill="none" stroke="#fff" stroke-linecap="round" stroke-linejoin="round" stroke-miterlimit="10"><path d="m15.3 28.7h7.6l10.4 30.2h25.1" stroke-width="3.621"></path><path d="m33.5 38.1h31.6" stroke-width="3.596"></path><path d="m35.6 45.2h27.7" stroke-width="3.371"></path><path d="m37.9 52h22.8" stroke-width="3.062"></path></g><circle cx="36.6" cy="66" fill="#fff" r="2.5"></circle><circle cx="54.5" cy="66" fill="#fff" r="2.5"></circle></svg>
