<svg enable-background="new 0 0 188.1 21" viewBox="0 0 188.1 21" xmlns="http://www.w3.org/2000/svg"><title>mastercard maestro visa american express paypal icons</title><path d="m188.1 0h-34.1v21h34.1z" fill="#cccccb"></path><path d="m187.7.4v20.3h-33.3v-20.3z" fill="#fff"></path><path d="m179.6 8.2c-.6 0-1.2.1-1.8.3l-.1 1.2c.5-.2 1.1-.3 1.6-.3.6 0 1 .1.8.6-1.8 0-3 .4-3.2 1.5-.3 2 1.8 1.9 2.7 1.1l-.1.5h1.6l.7-3.2c.1-1.4-1.1-1.8-2.2-1.7zm.1 3.2c-.1.4-.4.6-.8.6s-.7-.3-.4-.7c.3-.3.6-.4 1-.4h.4c-.1.2-.2.3-.2.5zm3.3-4.5-1.3 6.1h1.6l1.4-6.1zm-7.4 0h-3l-1.3 6.1h1.7l.4-2h1.2c1.2 0 2.3-.8 2.5-2 .3-.8-.2-1.7-1-2-.2-.1-.3-.1-.5-.1zm-.1 2.1c-.1.5-.5.8-1 .8h-.8l.4-1.7h.9c.4.1.6.4.5.9 0-.1 0 0 0 0z" fill="#167eae"></path><path d="m164 8.2c-.6 0-1.2.1-1.8.3l-.1 1.2c.5-.2 1-.3 1.5-.3.6 0 .9.1.8.6-1.8 0-3 .4-3.2 1.5-.3 2 1.8 1.9 2.7 1.1l-.1.5h1.6l.7-3.2c.3-1.4-1-1.8-2.1-1.7zm.2 3.2c-.1.4-.4.6-.8.6-.3 0-.5-.2-.5-.5 0-.1 0-.2.1-.2.3-.3.6-.4 1-.4h.4c-.1.1-.2.3-.2.5zm2.6-3.2h1.6l.2 2.9 1.6-2.9h1.7l-3.8 6.8h-1.8l1.1-2zm-6.7-1.3h-3l-1.3 6.1h1.8l.4-2h1.2c1.2 0 2.3-.8 2.5-2 .2-.9-.3-1.8-1.2-2-.1-.1-.3-.1-.4-.1zm-.1 2.1c-.1.5-.5.8-1 .8h-.8l.4-1.7h.9c.4.1.6.4.5.9 0-.1 0 0 0 0zm25-1.3v-.7h-.3v-.1h.6v.1h-.3zm.5 0v-.8h.2l.2.6.2-.6h.1v.8h-.1v-.7l-.2.7h-.1l-.2-.7z" fill="#1d567e"></path><path d="m115.9 21h33.2v-21h-33.2z" fill="#3473db"></path><path d="m118.9 7.4-.6-1.6-.6 1.6m15.3-.6c-.1.1-.3.1-.5.1h-1.1v-.9h1.1c.2 0 .3 0 .4.1s.2.2.2.3 0 .3-.1.4zm8.1.6-.6-1.6-.6 1.6zm-15.1 1.7h-1v-3.1l-1.3 3.1h-.8l-1.4-3.1v3.1h-1.9l-.4-.9h-1.9l-.4.9h-1l1.7-3.9h1.4l1.6 3.7v-3.7h1.5l1.2 2.6 1.1-2.6h1.5zm3.8 0h-3.1v-3.9h3.1v.8h-2.2v.7h2.1v.8h-2.1v.8h2.2zm4.4-2.9c0 .5-.3.9-.7 1 .2.1.3.2.5.3.1.2.2.5.2.7v.8h-.9v-.5c0-.3 0-.6-.2-.8s-.4-.2-.7-.2h-1v1.4h-.9v-3.9h2.1c.4-.1.8 0 1.1.2s.5.6.5 1zm1.5 2.9h-.9v-3.9h.9zm11.1 0h-1.3l-1.8-2.9v2.9h-1.9l-.4-.9h-1.9l-.4.9h-1.1c-.5 0-1-.1-1.4-.4-.4-.4-.5-1-.5-1.5s.1-1.1.5-1.5c.4-.3.9-.4 1.4-.4h.9v.7h-.9c-.2 0-.5.1-.7.2-.2.2-.3.6-.3.9s.1.7.3.9c.2.1.4.2.6.2h.4l1.3-3.1h1.4l1.6 3.7v-3.7h1.4l1.6 2.7v-2.7h1zm-30.9.8h1.6l.4-.9h.8l.4.9h3.1v-.7l.3.7h1.6l.3-.7v.7h7.8v-1.4h.1c.1 0 .1 0 .1.2v1.2h4v-.3c.5.2 1 .3 1.5.3h1.7l.4-.9h.8l.3.9h3.3v-.9l.5.8h2.6v-5.4h-2.6v.6l-.4-.6h-2.7v.6l-.3-.6h-3.6c-.5 0-1.1.1-1.6.3v-.3h-2.5v.3c-.3-.2-.6-.3-1-.3h-8.9l-.6 1.4-.6-1.4h-2.8v.6l-.3-.6h-2.4l-1.3 2.6zm33.2 2.8h-1.7c-.2 0-.3 0-.4.1s-.1.2-.1.3.1.2.2.3h.9c.4 0 .8.1 1.1.3l.1.1m-.1 1.5c-.3.4-.8.5-1.3.5h-1.8v-.8h1.8c.2 0 .3 0 .4-.1s.1-.1.1-.2c0-.2-.1-.4-.3-.4h-.1c-.9 0-2 0-2-1.2 0-.7.5-1.2 1.2-1.2h2v-.8h-1.7c-.4 0-.8.1-1.2.3v-.3h-2.5c-.4 0-.8.1-1.1.3v-.3h-4.6v.3c-.4-.2-.8-.3-1.3-.3h-3v.3c-.4-.3-.8-.4-1.3-.3h-3.4l-.8.8-.7-.8h-5v5.5h4.9l.8-.9.8.9h3v-1.3h.3c.4 0 .9 0 1.3-.2v1.5h2.5v-1.4h.1c.2 0 .2 0 .2.2v1.3h7.6c.5 0 .9-.1 1.3-.4v.4h2.4c.5 0 .9-.1 1.4-.2zm-3.7-1.5c.2.2.3.5.3.8 0 .8-.5 1.2-1.5 1.2h-1.8v-.8h1.8c.2 0 .3 0 .4-.1s.1-.1.1-.2c0-.2-.1-.4-.3-.4h-.1c-.9 0-2 0-2-1.2 0-.7.5-1.2 1.2-1.2h2v.8h-1.7c-.2 0-.3 0-.4.1s-.1.2-.1.3.1.2.2.3h.9c.4.1.8.1 1 .4zm-8.4-.3c-.1.1-.3.1-.5.1h-1.1v-.9h1.1c.2 0 .3 0 .4.1s.2.2.2.4c.1.1 0 .2-.1.3zm.5.5c.2.1.3.2.5.3.1.2.2.5.2.7v.8h-.9v-.5c0-.3 0-.6-.2-.8s-.4-.2-.7-.2h-1v1.4h-.9v-3.9h2.2c.4-.1.8 0 1.1.2s.5.5.5.9c0 .5-.3.9-.8 1.1zm1.2-2.1h3.1v.8h-2.2v.7h2.1v.8h-2.1v.8h2.2v.8h-3.1zm-6.3 1.8h-1.2v-1h1.2c.3 0 .6.1.6.5s-.2.5-.6.5zm-2.1 1.8-1.4-1.6 1.4-1.5zm-3.7-.5h-2.3v-.8h2v-.8h-2v-.7h2.3l1 1.1zm7.4-1.8c0 1.1-.8 1.3-1.6 1.3h-1.2v1.3h-1.8l-1.1-1.3-1.2 1.3h-3.7v-3.9h3.8l1.1 1.3 1.2-1.3h3c.7 0 1.5.2 1.5 1.3z" fill="#fff"></path><path d="m34.1 0h-34.1v21h34.1z" fill="#cccccb"></path><path d="m33.7.4v20.3h-33.3v-20.3z" fill="#fff"></path><path d="m72.4 0h-34.1v21h34.1z" fill="#cccccb"></path><path d="m72 .4v20.3h-33.3v-20.3z" fill="#fff"></path><path d="m9.9 19.3v-1.2c0-.4-.3-.7-.7-.7-.2 0-.5.1-.7.3-.1-.2-.3-.3-.6-.3-.2 0-.4.1-.5.3v-.2h-.4v1.9h.4v-1c0-.3.2-.5.5-.5s.4.2.4.5v1h.4v-1c0-.3.2-.5.5-.5s.4.2.4.5v1zm6.1-1.9h-.7v-.6h-.4v.6h-.4v.4h.4v.8c0 .4.2.7.6.7.2 0 .4-.1.5-.1l-.1-.3c-.1.1-.3.1-.4.1-.2 0-.3-.1-.3-.3v-.8h.8zm3.4-.1c-.2 0-.4.1-.5.3v-.2h-.4v1.9h.4v-1c0-.3.1-.5.4-.5h.3l.1-.4c-.1 0-.2-.1-.3-.1zm-5.2.2c-.2-.1-.5-.2-.8-.2-.5 0-.8.2-.8.6 0 .3.2.5.6.5h.2c.2 0 .3.1.3.2s-.1.2-.4.2-.5-.1-.6-.2l-.2.3c.2.2.5.2.8.2.5 0 .8-.3.8-.6s-.2-.5-.7-.6h-.2c-.2 0-.3-.1-.3-.2s.1-.2.4-.2c.2 0 .5.1.6.2zm10.8-.2c-.2 0-.4.1-.5.3v-.2h-.4v1.9h.4v-1c0-.3.1-.5.4-.5h.3l.1-.4c-.1 0-.2-.1-.3-.1zm-5.2 1c0 .6.4 1 1 1 .3 0 .5-.1.7-.2l-.2-.3c-.2.1-.3.2-.5.2-.3 0-.6-.2-.6-.6s.2-.6.6-.6c.2 0 .3.1.5.2l.2-.3c-.2-.2-.4-.2-.7-.2-.6-.2-1 .3-1 .8zm3.8 0v-.9h-.4v.2c-.1-.2-.3-.3-.6-.3-.5 0-.9.4-.9 1s.4 1 .9 1c.3 0 .5-.1.6-.3v.2h.4zm-1.5 0c0-.3.2-.6.6-.6.3 0 .6.3.6.6s-.2.6-.6.6-.6-.3-.6-.6zm-4.9-1c-.5 0-.9.4-.9 1s.4 1 1 1c.3 0 .5-.1.8-.3l-.2-.3c-.2.1-.4.2-.5.2-.3 0-.5-.1-.6-.5h1.4v-.2c-.1-.5-.5-.9-1-.9zm0 .4c.3 0 .4.2.5.5h-1c.1-.3.2-.5.5-.5zm10.2.6v-1.7h-.4v1c-.1-.2-.3-.3-.6-.3-.5 0-.9.4-.9 1s.4 1 .9 1c.3 0 .5-.1.6-.3v.2h.4zm-1.5 0c0-.3.2-.6.6-.6.3 0 .6.3.6.6s-.2.6-.6.6-.6-.3-.6-.6zm-13.7 0v-.9h-.4v.2c-.1-.2-.3-.3-.6-.3-.5 0-.9.4-.9 1s.4 1 .9 1c.3 0 .5-.1.6-.3v.2h.4zm-1.5 0c0-.3.2-.6.6-.6.3 0 .6.3.6.6s-.2.6-.6.6-.6-.3-.6-.6z"></path><path d="m14.1 3.2h6.1v11h-6.1z" fill="#ff5f00"></path><path d="m14.4 8.7c0-2.2 1-4.2 2.7-5.5-1.2-.9-2.7-1.5-4.3-1.5-3.9 0-7 3.1-7 7s3.1 7 7 7c1.6 0 3.1-.6 4.3-1.5-1.6-1.3-2.7-3.2-2.7-5.5z" fill="#eb001b"></path><path d="m28.5 8.7c0 3.9-3.1 7-7 7-1.6 0-3.1-.6-4.3-1.5 1.6-1.3 2.7-3.3 2.7-5.5s-1-4.2-2.7-5.5c1.2-.9 2.7-1.5 4.3-1.5 3.8 0 7 3.1 7 7z" fill="#f79e1b"></path><path d="m50.8 19.4v-1.2c0-.4-.3-.7-.7-.8h-.1c-.3 0-.5.1-.7.3-.1-.2-.4-.3-.6-.3s-.4.1-.6.3v-.2h-.4v1.9h.4v-1c0-.2.1-.5.4-.5h.1c.3 0 .4.2.4.5v1.1h.4v-1c0-.2.1-.5.4-.5h.1c.3 0 .4.2.4.5v1.1zm2.3-1v-.9h-.4v.2c-.1-.2-.4-.3-.6-.3-.5 0-1 .4-1 1s.4 1 1 1c.2 0 .5-.1.6-.3v.2h.4zm-1.5 0c0-.3.3-.6.6-.5.3 0 .6.3.5.6 0 .3-.3.5-.6.5s-.5-.2-.5-.6zm10.3-1c.1 0 .3 0 .4.1.1 0 .2.1.3.2s.2.2.2.3c.1.3.1.5 0 .8 0 .1-.1.2-.2.3s-.2.2-.3.2c-.3.1-.6.1-.8 0-.1 0-.2-.1-.3-.2s-.2-.2-.2-.3c-.1-.3-.1-.5 0-.8 0-.1.1-.2.2-.3s.2-.2.3-.2.3-.1.4-.1zm0 .4h-.2c-.1 0-.1.1-.2.1-.1.1-.1.1-.1.2-.1.2-.1.3 0 .5 0 .1.1.1.1.2.1.1.1.1.2.1.2.1.3.1.5 0 .1 0 .1-.1.2-.1.1-.1.1-.1.1-.2.1-.2.1-.3 0-.5 0-.1-.1-.1-.1-.2-.1-.1-.1-.1-.2-.1zm-6.6.6c0-.6-.4-1-.9-1s-1 .5-1 1 .5 1 1 1c.3 0 .6-.1.8-.3l-.2-.3c-.1.2-.3.2-.5.2-.3 0-.5-.2-.6-.5h1.4zm-1.4-.1c0-.3.2-.5.5-.5s.5.2.5.5zm3.2-.3c-.2-.1-.4-.2-.6-.2s-.4.1-.4.2.1.2.3.2h.2c.4.1.7.2.7.6s-.3.6-.9.6c-.3 0-.6-.1-.8-.2l.2-.3c.2.1.4.2.6.2.3 0 .4-.1.4-.2s-.1-.2-.3-.2h-.2c-.4-.1-.7-.2-.7-.6s.3-.6.8-.6c.3 0 .5.1.8.2zm2-.1h-.7v.9c0 .2.1.3.3.3.1 0 .3 0 .4-.1l.1.4c-.2.1-.3.1-.5.1-.5 0-.7-.3-.7-.7v-.9h-.4v-.4h.4v-.6h.4v.6h.7zm1.4-.5c.1 0 .2 0 .3.1l-.1.4h-.3c-.3 0-.4.2-.4.5v1.1h-.4v-1.9h.4v.2c.1-.3.3-.4.5-.4zm2.8 1.7c.1 0 .1 0 0 0 .1 0 .1 0 .1.1v.3h-.1-.1c-.1 0-.1 0-.2-.1v-.1-.1c.2-.1.2-.1.3-.1zm0 .3c.1 0 .1 0 0 0 .2-.1.2-.2.1-.2h-.1-.1c-.1.1-.1.1.1.2zm0-.2c.1 0 .1 0 0 0 .1.1.1.1 0 0v.1l.1.1-.1-.1v.1zm0 0c.1.1.1.1 0 0 .1.1.1 0 0 0 .1 0 .1 0 0 0z"></path><path d="m52.2 3h6.2v11.2h-6.2z" fill="#7673c0"></path><path d="m52.6 8.6c0-2.2 1-4.3 2.7-5.6-3.1-2.4-7.6-1.9-10 1.2s-1.9 7.6 1.2 10c2.6 2 6.2 2 8.8 0-1.7-1.3-2.7-3.4-2.7-5.6z" fill="#eb001b"></path><path d="m66.2 13.1v-.2h.1-.2.1zm.5 0v-.3h-.1l-.1.2-.1-.2h-.1v.3h.1v-.2l.1.2h.2v-.2zm.2-4.5c0 3.9-3.2 7.1-7.1 7.1-1.6 0-3.2-.5-4.4-1.5 3.1-2.4 3.6-6.9 1.2-10-.4-.4-.8-.9-1.2-1.2 3.1-2.4 7.6-1.9 10 1.2 1 1.3 1.5 2.8 1.5 4.4z" fill="#00a1df"></path><path d="m77.3 0h34.1v21h-34.1z" fill="#1a1f70"></path><g fill="#fff"><path d="m89.8 6.9-1.8 4.7-.7-4c-.1-.4-.4-.7-.8-.7h-3.1l-.1.2c.6.2 1.4.4 1.8.6.2.1.4.2.4.6l1.4 5.5v-.1h1.9l2.9-6.9z"></path><path d="m92.4 6.9-1.5 6.9h1.8l1.5-6.9z"></path><path d="m96.5 8.8c0-.2.2-.5.7-.6.2-.1 1-.1 1.8.3l.3-1.5c-.4-.2-1-.3-1.7-.3-1.8 0-3 .9-3 2.3 0 1 .9 1.6 1.6 1.9.7.4.9.6.9.9 0 .5-.6.7-1 .7-.9 0-1.4-.2-1.8-.4l-.3 1.5c.4.2 1.2.4 2 .4 1.9 0 3.1-.9 3.1-2.4-.1-1.8-2.6-2-2.6-2.8z"></path><path d="m105.4 13.9-1.4-6.9h-1.5c-.3 0-.6.2-.7.5l-2.8 6.4h1.9l.4-1h2.3l.2 1v.1h1.6zm-3.7-2.5 1-2.6.6 2.6z"></path></g></svg>
