<svg width="16" height="16" viewBox="0 0 16 16" fill="none" xmlns="http://www.w3.org/2000/svg">
<g clip-path="url(#clip0_9_115)">
<path d="M0.32 0.296295H15.712V2.04444H0.32V0.296295ZM0.32 4.02963L1.536 2.25185H14.688L15.68 4L0.32 4.02963ZM0.32 5.98518L1.536 4.17778H14.688L15.68 5.95555L0.32 5.98518ZM0.32 7.94074L1.536 6.16296H14.688L15.68 7.94074H0.32ZM0.32 9.86667L1.536 8.08889H14.688L15.68 9.83704L0.32 9.86667ZM0.32 11.8222L1.536 10.0444H14.688L15.68 11.7926L0.32 11.8222ZM0.32 13.7778L1.536 12H14.688L15.68 13.7481L0.32 13.7778ZM0.32 15.6741L1.536 13.8963H14.688L15.68 15.6444L0.32 15.6741Z" fill="white" stroke="#42145F" stroke-miterlimit="10" stroke-linejoin="round"/>
</g>
<defs>
<clipPath id="clip0_9_115">
<rect width="16" height="16" fill="white"/>
</clipPath>
</defs>
</svg>
