<svg width="16" height="16" viewBox="0 0 16 16" fill="none" xmlns="http://www.w3.org/2000/svg">
<g clip-path="url(#clip0_7_48)">
<path d="M14.24 0.32H1.184C0.767999 0.32 0.415999 0.736 0.383999 1.152C0.351999 1.632 0.704 2.144 1.152 2.144L1.184 2.24V14.272H15.008V1.088C15.008 0.672 14.656 0.32 14.24 0.32V0.32ZM1.184 14.816H15.008V15.648H1.184V14.816Z" fill="white" stroke="#42145F" stroke-width="1.0146" stroke-miterlimit="10"/>
<path d="M0.992001 1.984H14.368V2.048H0.992001V1.984Z" fill="#42145F"/>
<path d="M2.016 0.768002C2.016 0.768002 1.664 1.184 2.016 1.536M3.616 0.768002C3.616 0.768002 3.264 1.184 3.616 1.536M5.248 0.768002C5.248 0.768002 4.896 1.184 5.248 1.536M6.88 0.768002C6.88 0.768002 6.528 1.184 6.88 1.536M8.512 0.768002C8.512 0.768002 8.16 1.184 8.512 1.536M10.112 0.768002C10.112 0.768002 9.76 1.184 10.112 1.536M11.776 0.768002C11.776 0.768002 11.424 1.184 11.776 1.536" stroke="#5C2B7F" stroke-width="0.254" stroke-miterlimit="10"/>
<path d="M14.24 1.92C14.6818 1.92 15.04 1.56183 15.04 1.12C15.04 0.678172 14.6818 0.32 14.24 0.32C13.7982 0.32 13.44 0.678172 13.44 1.12C13.44 1.56183 13.7982 1.92 14.24 1.92Z" fill="white" stroke="#42145F" stroke-width="1.0146" stroke-miterlimit="10"/>
</g>
<defs>
<clipPath id="clip0_7_48">
<rect width="16" height="16" fill="white"/>
</clipPath>
</defs>
</svg>
