<svg viewBox="0 0 40 40" xmlns="http://www.w3.org/2000/svg"><title>twitter logo</title><circle cx="20" cy="20" fill="#2daae1" r="20"/><path d="m31.8 10.3c-1 .6-2.1 1-3.2 1.1-1-1-2.3-1.5-3.8-1.5-2.9 0-5.1 2.3-5.1 5.1 0 .4 0 .8.2 1.1-4.2-.2-8-2.3-10.7-5.3-.4.8-.8 1.5-.8 2.5 0 1.7 1 3.2 2.3 4.2-.8 0-1.7-.2-2.3-.6 0 2.5 1.7 4.6 4.2 5-.4.2-1 .2-1.3.2-.4 0-.6 0-1-.2.6 2.1 2.5 3.4 4.8 3.4-1.7 1.3-4 2.1-6.3 2.1h-1.1c2.3 1.5 5 2.3 7.8 2.3 9.3 0 14.7-7.6 14.7-14.3v-.6c1-.8 1.9-1.5 2.5-2.7-1 .4-1.9.6-3 .8 1-.3 1.7-1.3 2.1-2.6z" fill="#fff"/><circle cx="20" cy="20" fill="#2daae1" r="20"/><path d="m31.8 10.3c-1 .6-2.1 1-3.2 1.1-1-1-2.3-1.5-3.8-1.5-2.9 0-5.1 2.3-5.1 5.1 0 .4 0 .8.2 1.1-4.2-.2-8-2.3-10.7-5.3-.4.8-.8 1.5-.8 2.5 0 1.7 1 3.2 2.3 4.2-.8 0-1.7-.2-2.3-.6 0 2.5 1.7 4.6 4.2 5-.4.2-1 .2-1.3.2-.4 0-.6 0-1-.2.6 2.1 2.5 3.4 4.8 3.4-1.7 1.3-4 2.1-6.3 2.1h-1.1c2.3 1.5 5 2.3 7.8 2.3 9.3 0 14.7-7.6 14.7-14.3v-.6c1-.8 1.9-1.5 2.5-2.7-1 .4-1.9.6-3 .8 1-.3 1.7-1.3 2.1-2.6z" fill="#fff"/><circle cx="20" cy="20" fill="#2daae1" r="20"/><path d="m31.8 10.3c-1 .6-2.1 1-3.2 1.1-1-1-2.3-1.5-3.8-1.5-2.9 0-5.1 2.3-5.1 5.1 0 .4 0 .8.2 1.1-4.2-.2-8-2.3-10.7-5.3-.4.8-.8 1.5-.8 2.5 0 1.7 1 3.2 2.3 4.2-.8 0-1.7-.2-2.3-.6 0 2.5 1.7 4.6 4.2 5-.4.2-1 .2-1.3.2-.4 0-.6 0-1-.2.6 2.1 2.5 3.4 4.8 3.4-1.7 1.3-4 2.1-6.3 2.1h-1.1c2.3 1.5 5 2.3 7.8 2.3 9.3 0 14.7-7.6 14.7-14.3v-.6c1-.8 1.9-1.5 2.5-2.7-1 .4-1.9.6-3 .8 1-.3 1.7-1.3 2.1-2.6z" fill="#fff"/></svg>